  0
SECTION
  2
HEADER
  9
$ACADVER
  1
AC1009
  9
$FILLMODE
 70
1
  9
$EXTMIN
 10
-0.4699
 20
0.0000
 30
0.0000
  9
$EXTMAX
 10
82.0674
 20
26.1874
 30
0.0000
  0
ENDSEC
  0
SECTION
  2
TABLES
  0
TABLE
  2
LTYPE
 70
1
  0
LTYPE
  2
CONTINUOUS
 70
64
  3
Solid line
 72
65
 73
0
 40
0
  0
ENDTAB
  0
TABLE
  2
LAYER
 70
255
  0
LAYER
  2
1
 70
64
 62
22
  6
CONTINUOUS
  0
LAYER
  2
16
 70
64
 62
175
  6
CONTINUOUS
  0
LAYER
  2
17
 70
64
 62
82
  6
CONTINUOUS
  0
LAYER
  2
20
 70
64
 62
7
  6
CONTINUOUS
  0
ENDTAB
  0
ENDSEC
  0
SECTION
  2
BLOCKS
  0
BLOCK
  8
0
  2
RECT
 70
64
 10
0.0000
 20
0.0000
 30
0.0000
  3
RECT
  0
SOLID
  8
0
 10
-0.5000
 20
-0.5000
 30
0.0000
 11
0.5000
 21
-0.5000
 31
0.0000
 12
-0.5000
 22
0.5000
 32
0.0000
 13
0.5000
 23
0.5000
 33
0.0000
  0
ENDBLK
  8
0
  0
BLOCK
  8
0
  2
PIE
 70
64
 10
0.0000
 20
0.0000
 30
0.0000
  3
PIE
  0
POLYLINE
  8
0
 66
1
 10
0.0000
 20
0.0000
 30
0.0000
 40
0.5000
 41
0.5000
 70
0
  0
VERTEX
  8
0
 10
0.0000
 20
-0.2500
 30
0.0000
 42
1.0000
  0
VERTEX
  8
0
 10
0.0000
 20
0.2500
 30
0.0000
 42
1.0000
  0
VERTEX
  8
0
 10
0.0000
 20
-0.2500
 30
0.0000
  0
SEQEND
  8
0
  0
ENDBLK
  8
0
  0
BLOCK
  8
0
  2
OCTAGONP
 70
64
 10
0.0000
 20
0.0000
 30
0.0000
  3
OCTAGONP
  0
POLYLINE
  8
0
 66
1
 10
0.0000
 20
0.0000
 30
0.0000
 40
0.5000
 41
0.5000
 70
0
  0
VERTEX
  8
0
 10
-0.2500
 20
-0.1036
 30
0.0000
  0
VERTEX
  8
0
 10
-0.2500
 20
0.1036
 30
0.0000
  0
VERTEX
  8
0
 10
-0.1036
 20
0.2500
 30
0.0000
  0
VERTEX
  8
0
 10
0.1036
 20
0.2500
 30
0.0000
  0
VERTEX
  8
0
 10
0.2500
 20
0.1036
 30
0.0000
  0
VERTEX
  8
0
 10
0.2500
 20
-0.1036
 30
0.0000
  0
VERTEX
  8
0
 10
0.1036
 20
-0.2500
 30
0.0000
  0
VERTEX
  8
0
 10
-0.1036
 20
-0.2500
 30
0.0000
  0
VERTEX
  8
0
 10
-0.2500
 20
-0.1036
 30
0.0000
  0
VERTEX
  8
0
 10
-0.2500
 20
0.1036
 30
0.0000
  0
SEQEND
  8
0
  0
ENDBLK
  8
0
  0
BLOCK
  8
0
  2
SQUAREP
 70
64
 10
0.0000
 20
0.0000
 30
0.0000
  3
SQUAREP
  0
SOLID
  8
0
 10
-0.5000
 20
-0.5000
 30
0.0000
 11
0.5000
 21
-0.5000
 31
0.0000
 12
-0.5000
 22
0.5000
 32
0.0000
 13
0.5000
 23
0.5000
 33
0.0000
  0
ENDBLK
  8
0
  0
BLOCK
  8
0
  2
ROUNDP
 70
64
 10
0.0000
 20
0.0000
 30
0.0000
  3
ROUNDP
  0
POLYLINE
  8
0
 66
1
 10
0.0000
 20
0.0000
 30
0.0000
 40
0.5000
 41
0.5000
 70
0
  0
VERTEX
  8
0
 10
0.0000
 20
-0.2500
 30
0.0000
 42
1.0000
  0
VERTEX
  8
0
 10
0.0000
 20
0.2500
 30
0.0000
 42
1.0000
  0
VERTEX
  8
0
 10
0.0000
 20
-0.2500
 30
0.0000
  0
SEQEND
  8
0
  0
ENDBLK
  8
0
  0
BLOCK
  8
0
  2
ANNULUSP
 70
64
 10
0.0000
 20
0.0000
 30
0.0000
  3
ANNULUSP
  0
POLYLINE
  8
0
 66
1
 10
0.0000
 20
0.0000
 30
0.0000
 40
0.5000
 41
0.5000
 70
0
  0
VERTEX
  8
0
 10
0.0000
 20
-0.2500
 30
0.0000
 42
1.0000
  0
VERTEX
  8
0
 10
0.0000
 20
0.2500
 30
0.0000
 42
1.0000
  0
VERTEX
  8
0
 10
0.0000
 20
-0.2500
 30
0.0000
  0
SEQEND
  8
0
  0
ENDBLK
  8
0
  0
BLOCK
  8
0
  2
THERMALP
 70
64
 10
0.0000
 20
0.0000
 30
0.0000
  3
THERMALP
  0
POLYLINE
  8
0
 66
1
 10
0.0000
 20
0.0000
 30
0.0000
 40
0.1000
 41
0.1000
 70
0
  0
VERTEX
  8
0
 10
-0.2379
 20
0.4500
 30
0.0000
  0
VERTEX
  8
0
 10
0.2379
 20
0.4500
 30
0.0000
  0
SEQEND
  8
0
  0
POLYLINE
  8
0
 66
1
 10
0.0000
 20
0.0000
 30
0.0000
 40
0.0500
 41
0.0500
 70
0
  0
VERTEX
  8
0
 10
0.2379
 20
0.4250
 30
0.0000
 42
1.0000
  0
VERTEX
  8
0
 10
0.2379
 20
0.4750
 30
0.0000
  0
SEQEND
  8
0
  0
POLYLINE
  8
0
 66
1
 10
0.0000
 20
0.0000
 30
0.0000
 40
0.0500
 41
0.0500
 70
0
  0
VERTEX
  8
0
 10
-0.2379
 20
0.4750
 30
0.0000
 42
1.0000
  0
VERTEX
  8
0
 10
-0.2379
 20
0.4250
 30
0.0000
  0
SEQEND
  8
0
  0
POLYLINE
  8
0
 66
1
 10
0.0000
 20
0.0000
 30
0.0000
 40
0.1000
 41
0.1000
 70
0
  0
VERTEX
  8
0
 10
0.4500
 20
0.2379
 30
0.0000
  0
VERTEX
  8
0
 10
0.4500
 20
-0.2379
 30
0.0000
  0
SEQEND
  8
0
  0
POLYLINE
  8
0
 66
1
 10
0.0000
 20
0.0000
 30
0.0000
 40
0.0500
 41
0.0500
 70
0
  0
VERTEX
  8
0
 10
0.4250
 20
-0.2379
 30
0.0000
 42
1.0000
  0
VERTEX
  8
0
 10
0.4750
 20
-0.2379
 30
0.0000
  0
SEQEND
  8
0
  0
POLYLINE
  8
0
 66
1
 10
0.0000
 20
0.0000
 30
0.0000
 40
0.0500
 41
0.0500
 70
0
  0
VERTEX
  8
0
 10
0.4750
 20
0.2379
 30
0.0000
 42
1.0000
  0
VERTEX
  8
0
 10
0.4250
 20
0.2379
 30
0.0000
  0
SEQEND
  8
0
  0
POLYLINE
  8
0
 66
1
 10
0.0000
 20
0.0000
 30
0.0000
 40
0.1000
 41
0.1000
 70
0
  0
VERTEX
  8
0
 10
0.2379
 20
-0.4500
 30
0.0000
  0
VERTEX
  8
0
 10
-0.2379
 20
-0.4500
 30
0.0000
  0
SEQEND
  8
0
  0
POLYLINE
  8
0
 66
1
 10
0.0000
 20
0.0000
 30
0.0000
 40
0.0500
 41
0.0500
 70
0
  0
VERTEX
  8
0
 10
-0.2379
 20
-0.4250
 30
0.0000
 42
1.0000
  0
VERTEX
  8
0
 10
-0.2379
 20
-0.4750
 30
0.0000
  0
SEQEND
  8
0
  0
POLYLINE
  8
0
 66
1
 10
0.0000
 20
0.0000
 30
0.0000
 40
0.0500
 41
0.0500
 70
0
  0
VERTEX
  8
0
 10
0.2379
 20
-0.4750
 30
0.0000
 42
1.0000
  0
VERTEX
  8
0
 10
0.2379
 20
-0.4250
 30
0.0000
  0
SEQEND
  8
0
  0
POLYLINE
  8
0
 66
1
 10
0.0000
 20
0.0000
 30
0.0000
 40
0.1000
 41
0.1000
 70
0
  0
VERTEX
  8
0
 10
-0.4500
 20
-0.2379
 30
0.0000
  0
VERTEX
  8
0
 10
-0.4500
 20
0.2379
 30
0.0000
  0
SEQEND
  8
0
  0
POLYLINE
  8
0
 66
1
 10
0.0000
 20
0.0000
 30
0.0000
 40
0.0500
 41
0.0500
 70
0
  0
VERTEX
  8
0
 10
-0.4250
 20
0.2379
 30
0.0000
 42
1.0000
  0
VERTEX
  8
0
 10
-0.4750
 20
0.2379
 30
0.0000
  0
SEQEND
  8
0
  0
POLYLINE
  8
0
 66
1
 10
0.0000
 20
0.0000
 30
0.0000
 40
0.0500
 41
0.0500
 70
0
  0
VERTEX
  8
0
 10
-0.4750
 20
-0.2379
 30
0.0000
 42
1.0000
  0
VERTEX
  8
0
 10
-0.4250
 20
-0.2379
 30
0.0000
  0
SEQEND
  8
0
  0
ENDBLK
  8
0
  0
BLOCK
  8
0
  2
OCTAGONV
 70
64
 10
0.0000
 20
0.0000
 30
0.0000
  3
OCTAGONV
  0
POLYLINE
  8
0
 66
1
 10
0.0000
 20
0.0000
 30
0.0000
 40
0.5000
 41
0.5000
 70
0
  0
VERTEX
  8
0
 10
-0.2500
 20
-0.1036
 30
0.0000
  0
VERTEX
  8
0
 10
-0.2500
 20
0.1036
 30
0.0000
  0
VERTEX
  8
0
 10
-0.1036
 20
0.2500
 30
0.0000
  0
VERTEX
  8
0
 10
0.1036
 20
0.2500
 30
0.0000
  0
VERTEX
  8
0
 10
0.2500
 20
0.1036
 30
0.0000
  0
VERTEX
  8
0
 10
0.2500
 20
-0.1036
 30
0.0000
  0
VERTEX
  8
0
 10
0.1036
 20
-0.2500
 30
0.0000
  0
VERTEX
  8
0
 10
-0.1036
 20
-0.2500
 30
0.0000
  0
VERTEX
  8
0
 10
-0.2500
 20
-0.1036
 30
0.0000
  0
VERTEX
  8
0
 10
-0.2500
 20
0.1036
 30
0.0000
  0
SEQEND
  8
0
  0
ENDBLK
  8
0
  0
BLOCK
  8
0
  2
SQUAREV
 70
64
 10
0.0000
 20
0.0000
 30
0.0000
  3
SQUAREV
  0
SOLID
  8
0
 10
-0.5000
 20
-0.5000
 30
0.0000
 11
0.5000
 21
-0.5000
 31
0.0000
 12
-0.5000
 22
0.5000
 32
0.0000
 13
0.5000
 23
0.5000
 33
0.0000
  0
ENDBLK
  8
0
  0
BLOCK
  8
0
  2
ROUNDV
 70
64
 10
0.0000
 20
0.0000
 30
0.0000
  3
ROUNDV
  0
POLYLINE
  8
0
 66
1
 10
0.0000
 20
0.0000
 30
0.0000
 40
0.5000
 41
0.5000
 70
0
  0
VERTEX
  8
0
 10
0.0000
 20
-0.2500
 30
0.0000
 42
1.0000
  0
VERTEX
  8
0
 10
0.0000
 20
0.2500
 30
0.0000
 42
1.0000
  0
VERTEX
  8
0
 10
0.0000
 20
-0.2500
 30
0.0000
  0
SEQEND
  8
0
  0
ENDBLK
  8
0
  0
BLOCK
  8
0
  2
ANNULUSV
 70
64
 10
0.0000
 20
0.0000
 30
0.0000
  3
ANNULUSV
  0
POLYLINE
  8
0
 66
1
 10
0.0000
 20
0.0000
 30
0.0000
 40
0.5000
 41
0.5000
 70
0
  0
VERTEX
  8
0
 10
0.0000
 20
-0.2500
 30
0.0000
 42
1.0000
  0
VERTEX
  8
0
 10
0.0000
 20
0.2500
 30
0.0000
 42
1.0000
  0
VERTEX
  8
0
 10
0.0000
 20
-0.2500
 30
0.0000
  0
SEQEND
  8
0
  0
ENDBLK
  8
0
  0
BLOCK
  8
0
  2
THERMALV
 70
64
 10
0.0000
 20
0.0000
 30
0.0000
  3
THERMALV
  0
POLYLINE
  8
0
 66
1
 10
0.0000
 20
0.0000
 30
0.0000
 40
0.1000
 41
0.1000
 70
0
  0
VERTEX
  8
0
 10
-0.2379
 20
0.4500
 30
0.0000
  0
VERTEX
  8
0
 10
0.2379
 20
0.4500
 30
0.0000
  0
SEQEND
  8
0
  0
POLYLINE
  8
0
 66
1
 10
0.0000
 20
0.0000
 30
0.0000
 40
0.0500
 41
0.0500
 70
0
  0
VERTEX
  8
0
 10
0.2379
 20
0.4250
 30
0.0000
 42
1.0000
  0
VERTEX
  8
0
 10
0.2379
 20
0.4750
 30
0.0000
  0
SEQEND
  8
0
  0
POLYLINE
  8
0
 66
1
 10
0.0000
 20
0.0000
 30
0.0000
 40
0.0500
 41
0.0500
 70
0
  0
VERTEX
  8
0
 10
-0.2379
 20
0.4750
 30
0.0000
 42
1.0000
  0
VERTEX
  8
0
 10
-0.2379
 20
0.4250
 30
0.0000
  0
SEQEND
  8
0
  0
POLYLINE
  8
0
 66
1
 10
0.0000
 20
0.0000
 30
0.0000
 40
0.1000
 41
0.1000
 70
0
  0
VERTEX
  8
0
 10
0.4500
 20
0.2379
 30
0.0000
  0
VERTEX
  8
0
 10
0.4500
 20
-0.2379
 30
0.0000
  0
SEQEND
  8
0
  0
POLYLINE
  8
0
 66
1
 10
0.0000
 20
0.0000
 30
0.0000
 40
0.0500
 41
0.0500
 70
0
  0
VERTEX
  8
0
 10
0.4250
 20
-0.2379
 30
0.0000
 42
1.0000
  0
VERTEX
  8
0
 10
0.4750
 20
-0.2379
 30
0.0000
  0
SEQEND
  8
0
  0
POLYLINE
  8
0
 66
1
 10
0.0000
 20
0.0000
 30
0.0000
 40
0.0500
 41
0.0500
 70
0
  0
VERTEX
  8
0
 10
0.4750
 20
0.2379
 30
0.0000
 42
1.0000
  0
VERTEX
  8
0
 10
0.4250
 20
0.2379
 30
0.0000
  0
SEQEND
  8
0
  0
POLYLINE
  8
0
 66
1
 10
0.0000
 20
0.0000
 30
0.0000
 40
0.1000
 41
0.1000
 70
0
  0
VERTEX
  8
0
 10
0.2379
 20
-0.4500
 30
0.0000
  0
VERTEX
  8
0
 10
-0.2379
 20
-0.4500
 30
0.0000
  0
SEQEND
  8
0
  0
POLYLINE
  8
0
 66
1
 10
0.0000
 20
0.0000
 30
0.0000
 40
0.0500
 41
0.0500
 70
0
  0
VERTEX
  8
0
 10
-0.2379
 20
-0.4250
 30
0.0000
 42
1.0000
  0
VERTEX
  8
0
 10
-0.2379
 20
-0.4750
 30
0.0000
  0
SEQEND
  8
0
  0
POLYLINE
  8
0
 66
1
 10
0.0000
 20
0.0000
 30
0.0000
 40
0.0500
 41
0.0500
 70
0
  0
VERTEX
  8
0
 10
0.2379
 20
-0.4750
 30
0.0000
 42
1.0000
  0
VERTEX
  8
0
 10
0.2379
 20
-0.4250
 30
0.0000
  0
SEQEND
  8
0
  0
POLYLINE
  8
0
 66
1
 10
0.0000
 20
0.0000
 30
0.0000
 40
0.1000
 41
0.1000
 70
0
  0
VERTEX
  8
0
 10
-0.4500
 20
-0.2379
 30
0.0000
  0
VERTEX
  8
0
 10
-0.4500
 20
0.2379
 30
0.0000
  0
SEQEND
  8
0
  0
POLYLINE
  8
0
 66
1
 10
0.0000
 20
0.0000
 30
0.0000
 40
0.0500
 41
0.0500
 70
0
  0
VERTEX
  8
0
 10
-0.4250
 20
0.2379
 30
0.0000
 42
1.0000
  0
VERTEX
  8
0
 10
-0.4750
 20
0.2379
 30
0.0000
  0
SEQEND
  8
0
  0
POLYLINE
  8
0
 66
1
 10
0.0000
 20
0.0000
 30
0.0000
 40
0.0500
 41
0.0500
 70
0
  0
VERTEX
  8
0
 10
-0.4750
 20
-0.2379
 30
0.0000
 42
1.0000
  0
VERTEX
  8
0
 10
-0.4250
 20
-0.2379
 30
0.0000
  0
SEQEND
  8
0
  0
ENDBLK
  8
0
  0
ENDSEC
  0
SECTION
  2
ENTITIES
  0
LINE
  8
20
 10
0.0000
 20
0.0000
 30
0.0000
 11
81.2600
 21
0.0000
 31
0.0000
  0
LINE
  8
20
 10
81.2600
 20
0.0000
 30
0.0000
 11
81.2600
 21
25.7050
 31
0.0000
  0
LINE
  8
20
 10
81.2600
 20
25.7050
 30
0.0000
 11
0.0000
 21
25.7050
 31
0.0000
  0
LINE
  8
20
 10
0.0000
 20
25.7050
 30
0.0000
 11
0.0000
 21
0.0000
 31
0.0000
  0
CIRCLE
  8
20
 10
7.6200
 20
8.8900
 30
0.0000
 40
1.4000
  0
CIRCLE
  8
20
 10
7.6200
 20
22.8600
 30
0.0000
 40
1.4000
  0
CIRCLE
  8
20
 10
73.6600
 20
8.8900
 30
0.0000
 40
1.4000
  0
CIRCLE
  8
20
 10
73.6600
 20
22.8600
 30
0.0000
 40
1.4000
  0
INSERT
  8
1
  2
RECT
 10
42.0400
 20
19.3675
 30
0.0000
 41
1.6000
 42
1.8000
 43
1.0000
 50
180.0000
  0
INSERT
  8
1
  2
RECT
 10
39.2400
 20
19.3675
 30
0.0000
 41
1.6000
 42
1.8000
 43
1.0000
 50
180.0000
  0
INSERT
  8
1
  2
RECT
 10
38.0400
 20
11.7475
 30
0.0000
 41
1.8000
 42
0.3500
 43
1.0000
 50
0.0000
  0
INSERT
  8
1
  2
RECT
 10
43.2400
 20
14.9225
 30
0.0000
 41
1.8000
 42
0.3500
 43
1.0000
 50
0.0000
  0
INSERT
  8
1
  2
RECT
 10
38.0400
 20
11.1125
 30
0.0000
 41
1.8000
 42
0.3500
 43
1.0000
 50
0.0000
  0
INSERT
  8
1
  2
RECT
 10
38.0400
 20
10.4775
 30
0.0000
 41
1.8000
 42
0.3500
 43
1.0000
 50
0.0000
  0
INSERT
  8
1
  2
RECT
 10
38.0400
 20
12.3825
 30
0.0000
 41
1.8000
 42
0.3500
 43
1.0000
 50
0.0000
  0
INSERT
  8
1
  2
RECT
 10
38.0400
 20
13.0175
 30
0.0000
 41
1.8000
 42
0.3500
 43
1.0000
 50
0.0000
  0
INSERT
  8
1
  2
RECT
 10
38.0400
 20
13.6525
 30
0.0000
 41
1.8000
 42
0.3500
 43
1.0000
 50
0.0000
  0
INSERT
  8
1
  2
RECT
 10
38.0400
 20
14.2875
 30
0.0000
 41
1.8000
 42
0.3500
 43
1.0000
 50
0.0000
  0
INSERT
  8
1
  2
RECT
 10
38.0400
 20
14.9225
 30
0.0000
 41
1.8000
 42
0.3500
 43
1.0000
 50
0.0000
  0
INSERT
  8
1
  2
RECT
 10
43.2400
 20
14.2875
 30
0.0000
 41
1.8000
 42
0.3500
 43
1.0000
 50
0.0000
  0
INSERT
  8
1
  2
RECT
 10
38.0400
 20
9.8425
 30
0.0000
 41
1.8000
 42
0.3500
 43
1.0000
 50
0.0000
  0
INSERT
  8
1
  2
RECT
 10
38.0400
 20
9.2075
 30
0.0000
 41
1.8000
 42
0.3500
 43
1.0000
 50
0.0000
  0
INSERT
  8
1
  2
RECT
 10
38.0400
 20
8.5725
 30
0.0000
 41
1.8000
 42
0.3500
 43
1.0000
 50
0.0000
  0
INSERT
  8
1
  2
RECT
 10
43.2400
 20
13.6525
 30
0.0000
 41
1.8000
 42
0.3500
 43
1.0000
 50
0.0000
  0
INSERT
  8
1
  2
RECT
 10
38.0400
 20
7.9375
 30
0.0000
 41
1.8000
 42
0.3500
 43
1.0000
 50
0.0000
  0
INSERT
  8
1
  2
RECT
 10
43.2400
 20
13.0175
 30
0.0000
 41
1.8000
 42
0.3500
 43
1.0000
 50
0.0000
  0
INSERT
  8
1
  2
RECT
 10
43.2400
 20
12.3825
 30
0.0000
 41
1.8000
 42
0.3500
 43
1.0000
 50
0.0000
  0
INSERT
  8
1
  2
RECT
 10
43.2400
 20
11.7475
 30
0.0000
 41
1.8000
 42
0.3500
 43
1.0000
 50
0.0000
  0
INSERT
  8
1
  2
RECT
 10
43.2400
 20
11.1125
 30
0.0000
 41
1.8000
 42
0.3500
 43
1.0000
 50
0.0000
  0
INSERT
  8
1
  2
RECT
 10
43.2400
 20
10.4775
 30
0.0000
 41
1.8000
 42
0.3500
 43
1.0000
 50
0.0000
  0
INSERT
  8
1
  2
RECT
 10
43.2400
 20
9.8425
 30
0.0000
 41
1.8000
 42
0.3500
 43
1.0000
 50
0.0000
  0
INSERT
  8
1
  2
RECT
 10
43.2400
 20
9.2075
 30
0.0000
 41
1.8000
 42
0.3500
 43
1.0000
 50
0.0000
  0
INSERT
  8
1
  2
RECT
 10
43.2400
 20
8.5725
 30
0.0000
 41
1.8000
 42
0.3500
 43
1.0000
 50
0.0000
  0
INSERT
  8
1
  2
RECT
 10
43.2400
 20
7.9375
 30
0.0000
 41
1.8000
 42
0.3500
 43
1.0000
 50
0.0000
  0
INSERT
  8
17
  2
OCTAGONP
 10
2.5400
 20
23.4950
 30
0.0000
 41
1.5240
 42
1.5240
 43
1.0000
 50
0.0000
  0
INSERT
  8
17
  2
OCTAGONP
 10
2.5400
 20
23.4950
 30
0.0000
 41
1.5240
 42
1.5240
 43
1.0000
 50
0.0000
  0
INSERT
  8
17
  2
OCTAGONP
 10
2.5400
 20
20.9550
 30
0.0000
 41
1.5240
 42
1.5240
 43
1.0000
 50
0.0000
  0
INSERT
  8
17
  2
OCTAGONP
 10
2.5400
 20
20.9550
 30
0.0000
 41
1.5240
 42
1.5240
 43
1.0000
 50
0.0000
  0
INSERT
  8
17
  2
OCTAGONP
 10
2.5400
 20
18.4150
 30
0.0000
 41
1.5240
 42
1.5240
 43
1.0000
 50
0.0000
  0
INSERT
  8
17
  2
OCTAGONP
 10
2.5400
 20
18.4150
 30
0.0000
 41
1.5240
 42
1.5240
 43
1.0000
 50
0.0000
  0
INSERT
  8
17
  2
OCTAGONP
 10
2.5400
 20
15.8750
 30
0.0000
 41
1.5240
 42
1.5240
 43
1.0000
 50
0.0000
  0
INSERT
  8
17
  2
OCTAGONP
 10
2.5400
 20
15.8750
 30
0.0000
 41
1.5240
 42
1.5240
 43
1.0000
 50
0.0000
  0
INSERT
  8
17
  2
OCTAGONP
 10
2.5400
 20
13.3350
 30
0.0000
 41
1.5240
 42
1.5240
 43
1.0000
 50
0.0000
  0
INSERT
  8
17
  2
OCTAGONP
 10
2.5400
 20
13.3350
 30
0.0000
 41
1.5240
 42
1.5240
 43
1.0000
 50
0.0000
  0
INSERT
  8
17
  2
OCTAGONP
 10
2.5400
 20
10.7950
 30
0.0000
 41
1.5240
 42
1.5240
 43
1.0000
 50
0.0000
  0
INSERT
  8
17
  2
OCTAGONP
 10
2.5400
 20
10.7950
 30
0.0000
 41
1.5240
 42
1.5240
 43
1.0000
 50
0.0000
  0
INSERT
  8
17
  2
OCTAGONP
 10
78.7400
 20
23.4950
 30
0.0000
 41
1.5240
 42
1.5240
 43
1.0000
 50
0.0000
  0
INSERT
  8
17
  2
OCTAGONP
 10
78.7400
 20
23.4950
 30
0.0000
 41
1.5240
 42
1.5240
 43
1.0000
 50
0.0000
  0
INSERT
  8
17
  2
OCTAGONP
 10
78.7400
 20
20.9550
 30
0.0000
 41
1.5240
 42
1.5240
 43
1.0000
 50
0.0000
  0
INSERT
  8
17
  2
OCTAGONP
 10
78.7400
 20
20.9550
 30
0.0000
 41
1.5240
 42
1.5240
 43
1.0000
 50
0.0000
  0
INSERT
  8
17
  2
OCTAGONP
 10
78.7400
 20
18.4150
 30
0.0000
 41
1.5240
 42
1.5240
 43
1.0000
 50
0.0000
  0
INSERT
  8
17
  2
OCTAGONP
 10
78.7400
 20
18.4150
 30
0.0000
 41
1.5240
 42
1.5240
 43
1.0000
 50
0.0000
  0
INSERT
  8
17
  2
OCTAGONP
 10
78.7400
 20
15.8750
 30
0.0000
 41
1.5240
 42
1.5240
 43
1.0000
 50
0.0000
  0
INSERT
  8
17
  2
OCTAGONP
 10
78.7400
 20
15.8750
 30
0.0000
 41
1.5240
 42
1.5240
 43
1.0000
 50
0.0000
  0
INSERT
  8
17
  2
OCTAGONP
 10
78.7400
 20
13.3350
 30
0.0000
 41
1.5240
 42
1.5240
 43
1.0000
 50
0.0000
  0
INSERT
  8
17
  2
OCTAGONP
 10
78.7400
 20
13.3350
 30
0.0000
 41
1.5240
 42
1.5240
 43
1.0000
 50
0.0000
  0
INSERT
  8
17
  2
OCTAGONP
 10
78.7400
 20
10.7950
 30
0.0000
 41
1.5240
 42
1.5240
 43
1.0000
 50
0.0000
  0
INSERT
  8
17
  2
OCTAGONP
 10
78.7400
 20
10.7950
 30
0.0000
 41
1.5240
 42
1.5240
 43
1.0000
 50
0.0000
  0
INSERT
  8
17
  2
OCTAGONP
 10
1.2700
 20
2.5400
 30
0.0000
 41
1.6764
 42
1.6764
 43
1.0000
 50
0.0000
  0
INSERT
  8
17
  2
OCTAGONP
 10
1.2700
 20
2.5400
 30
0.0000
 41
1.6764
 42
1.6764
 43
1.0000
 50
0.0000
  0
INSERT
  8
17
  2
OCTAGONP
 10
3.8100
 20
2.5400
 30
0.0000
 41
1.6764
 42
1.6764
 43
1.0000
 50
0.0000
  0
INSERT
  8
17
  2
OCTAGONP
 10
3.8100
 20
2.5400
 30
0.0000
 41
1.6764
 42
1.6764
 43
1.0000
 50
0.0000
  0
INSERT
  8
17
  2
OCTAGONP
 10
6.3500
 20
2.5400
 30
0.0000
 41
1.6764
 42
1.6764
 43
1.0000
 50
0.0000
  0
INSERT
  8
17
  2
OCTAGONP
 10
6.3500
 20
2.5400
 30
0.0000
 41
1.6764
 42
1.6764
 43
1.0000
 50
0.0000
  0
INSERT
  8
17
  2
OCTAGONP
 10
8.8900
 20
2.5400
 30
0.0000
 41
1.6764
 42
1.6764
 43
1.0000
 50
0.0000
  0
INSERT
  8
17
  2
OCTAGONP
 10
8.8900
 20
2.5400
 30
0.0000
 41
1.6764
 42
1.6764
 43
1.0000
 50
0.0000
  0
INSERT
  8
17
  2
OCTAGONP
 10
11.4300
 20
2.5400
 30
0.0000
 41
1.6764
 42
1.6764
 43
1.0000
 50
0.0000
  0
INSERT
  8
17
  2
OCTAGONP
 10
11.4300
 20
2.5400
 30
0.0000
 41
1.6764
 42
1.6764
 43
1.0000
 50
0.0000
  0
INSERT
  8
17
  2
OCTAGONP
 10
13.9700
 20
2.5400
 30
0.0000
 41
1.6764
 42
1.6764
 43
1.0000
 50
0.0000
  0
INSERT
  8
17
  2
OCTAGONP
 10
13.9700
 20
2.5400
 30
0.0000
 41
1.6764
 42
1.6764
 43
1.0000
 50
0.0000
  0
INSERT
  8
17
  2
OCTAGONP
 10
16.5100
 20
2.5400
 30
0.0000
 41
1.6764
 42
1.6764
 43
1.0000
 50
0.0000
  0
INSERT
  8
17
  2
OCTAGONP
 10
16.5100
 20
2.5400
 30
0.0000
 41
1.6764
 42
1.6764
 43
1.0000
 50
0.0000
  0
INSERT
  8
17
  2
OCTAGONP
 10
19.0500
 20
2.5400
 30
0.0000
 41
1.6764
 42
1.6764
 43
1.0000
 50
0.0000
  0
INSERT
  8
17
  2
OCTAGONP
 10
19.0500
 20
2.5400
 30
0.0000
 41
1.6764
 42
1.6764
 43
1.0000
 50
0.0000
  0
INSERT
  8
17
  2
OCTAGONP
 10
21.5900
 20
2.5400
 30
0.0000
 41
1.6764
 42
1.6764
 43
1.0000
 50
0.0000
  0
INSERT
  8
17
  2
OCTAGONP
 10
21.5900
 20
2.5400
 30
0.0000
 41
1.6764
 42
1.6764
 43
1.0000
 50
0.0000
  0
INSERT
  8
17
  2
OCTAGONP
 10
24.1300
 20
2.5400
 30
0.0000
 41
1.6764
 42
1.6764
 43
1.0000
 50
0.0000
  0
INSERT
  8
17
  2
OCTAGONP
 10
24.1300
 20
2.5400
 30
0.0000
 41
1.6764
 42
1.6764
 43
1.0000
 50
0.0000
  0
INSERT
  8
17
  2
OCTAGONP
 10
26.6700
 20
2.5400
 30
0.0000
 41
1.6764
 42
1.6764
 43
1.0000
 50
0.0000
  0
INSERT
  8
17
  2
OCTAGONP
 10
26.6700
 20
2.5400
 30
0.0000
 41
1.6764
 42
1.6764
 43
1.0000
 50
0.0000
  0
INSERT
  8
17
  2
OCTAGONP
 10
29.2100
 20
2.5400
 30
0.0000
 41
1.6764
 42
1.6764
 43
1.0000
 50
0.0000
  0
INSERT
  8
17
  2
OCTAGONP
 10
29.2100
 20
2.5400
 30
0.0000
 41
1.6764
 42
1.6764
 43
1.0000
 50
0.0000
  0
INSERT
  8
17
  2
OCTAGONP
 10
31.7500
 20
2.5400
 30
0.0000
 41
1.6764
 42
1.6764
 43
1.0000
 50
0.0000
  0
INSERT
  8
17
  2
OCTAGONP
 10
31.7500
 20
2.5400
 30
0.0000
 41
1.6764
 42
1.6764
 43
1.0000
 50
0.0000
  0
INSERT
  8
17
  2
OCTAGONP
 10
34.2900
 20
2.5400
 30
0.0000
 41
1.6764
 42
1.6764
 43
1.0000
 50
0.0000
  0
INSERT
  8
17
  2
OCTAGONP
 10
34.2900
 20
2.5400
 30
0.0000
 41
1.6764
 42
1.6764
 43
1.0000
 50
0.0000
  0
INSERT
  8
17
  2
OCTAGONP
 10
36.8300
 20
2.5400
 30
0.0000
 41
1.6764
 42
1.6764
 43
1.0000
 50
0.0000
  0
INSERT
  8
17
  2
OCTAGONP
 10
36.8300
 20
2.5400
 30
0.0000
 41
1.6764
 42
1.6764
 43
1.0000
 50
0.0000
  0
INSERT
  8
17
  2
OCTAGONP
 10
39.3700
 20
2.5400
 30
0.0000
 41
1.6764
 42
1.6764
 43
1.0000
 50
0.0000
  0
INSERT
  8
17
  2
OCTAGONP
 10
39.3700
 20
2.5400
 30
0.0000
 41
1.6764
 42
1.6764
 43
1.0000
 50
0.0000
  0
INSERT
  8
17
  2
OCTAGONP
 10
41.9100
 20
2.5400
 30
0.0000
 41
1.6764
 42
1.6764
 43
1.0000
 50
0.0000
  0
INSERT
  8
17
  2
OCTAGONP
 10
41.9100
 20
2.5400
 30
0.0000
 41
1.6764
 42
1.6764
 43
1.0000
 50
0.0000
  0
INSERT
  8
17
  2
OCTAGONP
 10
44.4500
 20
2.5400
 30
0.0000
 41
1.6764
 42
1.6764
 43
1.0000
 50
0.0000
  0
INSERT
  8
17
  2
OCTAGONP
 10
44.4500
 20
2.5400
 30
0.0000
 41
1.6764
 42
1.6764
 43
1.0000
 50
0.0000
  0
INSERT
  8
17
  2
OCTAGONP
 10
46.9900
 20
2.5400
 30
0.0000
 41
1.6764
 42
1.6764
 43
1.0000
 50
0.0000
  0
INSERT
  8
17
  2
OCTAGONP
 10
46.9900
 20
2.5400
 30
0.0000
 41
1.6764
 42
1.6764
 43
1.0000
 50
0.0000
  0
INSERT
  8
17
  2
OCTAGONP
 10
49.5300
 20
2.5400
 30
0.0000
 41
1.6764
 42
1.6764
 43
1.0000
 50
0.0000
  0
INSERT
  8
17
  2
OCTAGONP
 10
49.5300
 20
2.5400
 30
0.0000
 41
1.6764
 42
1.6764
 43
1.0000
 50
0.0000
  0
INSERT
  8
17
  2
OCTAGONP
 10
52.0700
 20
2.5400
 30
0.0000
 41
1.6764
 42
1.6764
 43
1.0000
 50
0.0000
  0
INSERT
  8
17
  2
OCTAGONP
 10
52.0700
 20
2.5400
 30
0.0000
 41
1.6764
 42
1.6764
 43
1.0000
 50
0.0000
  0
INSERT
  8
17
  2
OCTAGONP
 10
54.6100
 20
2.5400
 30
0.0000
 41
1.6764
 42
1.6764
 43
1.0000
 50
0.0000
  0
INSERT
  8
17
  2
OCTAGONP
 10
54.6100
 20
2.5400
 30
0.0000
 41
1.6764
 42
1.6764
 43
1.0000
 50
0.0000
  0
INSERT
  8
17
  2
OCTAGONP
 10
57.1500
 20
2.5400
 30
0.0000
 41
1.6764
 42
1.6764
 43
1.0000
 50
0.0000
  0
INSERT
  8
17
  2
OCTAGONP
 10
57.1500
 20
2.5400
 30
0.0000
 41
1.6764
 42
1.6764
 43
1.0000
 50
0.0000
  0
INSERT
  8
17
  2
OCTAGONP
 10
59.6900
 20
2.5400
 30
0.0000
 41
1.6764
 42
1.6764
 43
1.0000
 50
0.0000
  0
INSERT
  8
17
  2
OCTAGONP
 10
59.6900
 20
2.5400
 30
0.0000
 41
1.6764
 42
1.6764
 43
1.0000
 50
0.0000
  0
INSERT
  8
17
  2
OCTAGONP
 10
62.2300
 20
2.5400
 30
0.0000
 41
1.6764
 42
1.6764
 43
1.0000
 50
0.0000
  0
INSERT
  8
17
  2
OCTAGONP
 10
62.2300
 20
2.5400
 30
0.0000
 41
1.6764
 42
1.6764
 43
1.0000
 50
0.0000
  0
INSERT
  8
17
  2
OCTAGONP
 10
64.7700
 20
2.5400
 30
0.0000
 41
1.6764
 42
1.6764
 43
1.0000
 50
0.0000
  0
INSERT
  8
17
  2
OCTAGONP
 10
64.7700
 20
2.5400
 30
0.0000
 41
1.6764
 42
1.6764
 43
1.0000
 50
0.0000
  0
INSERT
  8
17
  2
OCTAGONP
 10
67.3100
 20
2.5400
 30
0.0000
 41
1.6764
 42
1.6764
 43
1.0000
 50
0.0000
  0
INSERT
  8
17
  2
OCTAGONP
 10
67.3100
 20
2.5400
 30
0.0000
 41
1.6764
 42
1.6764
 43
1.0000
 50
0.0000
  0
INSERT
  8
17
  2
OCTAGONP
 10
69.8500
 20
2.5400
 30
0.0000
 41
1.6764
 42
1.6764
 43
1.0000
 50
0.0000
  0
INSERT
  8
17
  2
OCTAGONP
 10
69.8500
 20
2.5400
 30
0.0000
 41
1.6764
 42
1.6764
 43
1.0000
 50
0.0000
  0
INSERT
  8
17
  2
OCTAGONP
 10
72.3900
 20
2.5400
 30
0.0000
 41
1.6764
 42
1.6764
 43
1.0000
 50
0.0000
  0
INSERT
  8
17
  2
OCTAGONP
 10
72.3900
 20
2.5400
 30
0.0000
 41
1.6764
 42
1.6764
 43
1.0000
 50
0.0000
  0
INSERT
  8
17
  2
OCTAGONP
 10
74.9300
 20
2.5400
 30
0.0000
 41
1.6764
 42
1.6764
 43
1.0000
 50
0.0000
  0
INSERT
  8
17
  2
OCTAGONP
 10
74.9300
 20
2.5400
 30
0.0000
 41
1.6764
 42
1.6764
 43
1.0000
 50
0.0000
  0
INSERT
  8
17
  2
OCTAGONP
 10
77.4700
 20
2.5400
 30
0.0000
 41
1.6764
 42
1.6764
 43
1.0000
 50
0.0000
  0
INSERT
  8
17
  2
OCTAGONP
 10
77.4700
 20
2.5400
 30
0.0000
 41
1.6764
 42
1.6764
 43
1.0000
 50
0.0000
  0
INSERT
  8
17
  2
OCTAGONP
 10
80.0100
 20
2.5400
 30
0.0000
 41
1.6764
 42
1.6764
 43
1.0000
 50
0.0000
  0
INSERT
  8
17
  2
OCTAGONP
 10
80.0100
 20
2.5400
 30
0.0000
 41
1.6764
 42
1.6764
 43
1.0000
 50
0.0000
  0
INSERT
  8
17
  2
OCTAGONP
 10
35.5600
 20
22.8600
 30
0.0000
 41
1.2192
 42
1.2192
 43
1.0000
 50
0.0000
  0
INSERT
  8
17
  2
OCTAGONP
 10
35.5600
 20
22.8600
 30
0.0000
 41
1.2192
 42
1.2192
 43
1.0000
 50
0.0000
  0
INSERT
  8
17
  2
OCTAGONP
 10
45.7200
 20
22.8600
 30
0.0000
 41
1.2192
 42
1.2192
 43
1.0000
 50
0.0000
  0
INSERT
  8
17
  2
OCTAGONP
 10
45.7200
 20
22.8600
 30
0.0000
 41
1.2192
 42
1.2192
 43
1.0000
 50
0.0000
  0
POLYLINE
  8
1
 66
1
 10
0.0000
 20
0.0000
 30
0.0000
 40
0.3048
 41
0.3048
 70
0
  0
VERTEX
  8
1
 10
2.5400
 20
15.8750
 30
0.0000
  0
VERTEX
  8
1
 10
5.3975
 20
15.8750
 30
0.0000
  0
SEQEND
  8
0
  0
POLYLINE
  8
1
 66
1
 10
0.0000
 20
0.0000
 30
0.0000
 40
0.1524
 41
0.1524
 70
0
  0
VERTEX
  8
1
 10
5.3975
 20
15.7988
 30
0.0000
 42
1.0000
  0
VERTEX
  8
1
 10
5.3975
 20
15.9512
 30
0.0000
  0
SEQEND
  8
0
  0
POLYLINE
  8
1
 66
1
 10
0.0000
 20
0.0000
 30
0.0000
 40
0.1524
 41
0.1524
 70
0
  0
VERTEX
  8
1
 10
2.5400
 20
15.9512
 30
0.0000
 42
1.0000
  0
VERTEX
  8
1
 10
2.5400
 20
15.7988
 30
0.0000
  0
SEQEND
  8
0
  0
POLYLINE
  8
1
 66
1
 10
0.0000
 20
0.0000
 30
0.0000
 40
0.3048
 41
0.3048
 70
0
  0
VERTEX
  8
1
 10
5.3975
 20
15.8750
 30
0.0000
  0
VERTEX
  8
1
 10
7.6200
 20
13.6525
 30
0.0000
  0
SEQEND
  8
0
  0
POLYLINE
  8
1
 66
1
 10
0.0000
 20
0.0000
 30
0.0000
 40
0.1524
 41
0.1524
 70
0
  0
VERTEX
  8
1
 10
7.5661
 20
13.5986
 30
0.0000
 42
1.0000
  0
VERTEX
  8
1
 10
7.6739
 20
13.7064
 30
0.0000
  0
SEQEND
  8
0
  0
POLYLINE
  8
1
 66
1
 10
0.0000
 20
0.0000
 30
0.0000
 40
0.1524
 41
0.1524
 70
0
  0
VERTEX
  8
1
 10
5.4514
 20
15.9289
 30
0.0000
 42
1.0000
  0
VERTEX
  8
1
 10
5.3436
 20
15.8211
 30
0.0000
  0
SEQEND
  8
0
  0
POLYLINE
  8
1
 66
1
 10
0.0000
 20
0.0000
 30
0.0000
 40
0.3048
 41
0.3048
 70
0
  0
VERTEX
  8
1
 10
7.6200
 20
13.6525
 30
0.0000
  0
VERTEX
  8
1
 10
38.0400
 20
13.6525
 30
0.0000
  0
SEQEND
  8
0
  0
POLYLINE
  8
1
 66
1
 10
0.0000
 20
0.0000
 30
0.0000
 40
0.1524
 41
0.1524
 70
0
  0
VERTEX
  8
1
 10
38.0400
 20
13.5763
 30
0.0000
 42
1.0000
  0
VERTEX
  8
1
 10
38.0400
 20
13.7287
 30
0.0000
  0
SEQEND
  8
0
  0
POLYLINE
  8
1
 66
1
 10
0.0000
 20
0.0000
 30
0.0000
 40
0.1524
 41
0.1524
 70
0
  0
VERTEX
  8
1
 10
7.6200
 20
13.7287
 30
0.0000
 42
1.0000
  0
VERTEX
  8
1
 10
7.6200
 20
13.5763
 30
0.0000
  0
SEQEND
  8
0
  0
POLYLINE
  8
16
 66
1
 10
0.0000
 20
0.0000
 30
0.0000
 40
0.3048
 41
0.3048
 70
0
  0
VERTEX
  8
16
 10
78.7400
 20
15.8750
 30
0.0000
  0
VERTEX
  8
16
 10
2.5400
 20
15.8750
 30
0.0000
  0
SEQEND
  8
0
  0
POLYLINE
  8
16
 66
1
 10
0.0000
 20
0.0000
 30
0.0000
 40
0.1524
 41
0.1524
 70
0
  0
VERTEX
  8
16
 10
2.5400
 20
15.9512
 30
0.0000
 42
1.0000
  0
VERTEX
  8
16
 10
2.5400
 20
15.7988
 30
0.0000
  0
SEQEND
  8
0
  0
POLYLINE
  8
16
 66
1
 10
0.0000
 20
0.0000
 30
0.0000
 40
0.1524
 41
0.1524
 70
0
  0
VERTEX
  8
16
 10
78.7400
 20
15.7988
 30
0.0000
 42
1.0000
  0
VERTEX
  8
16
 10
78.7400
 20
15.9512
 30
0.0000
  0
SEQEND
  8
0
  0
POLYLINE
  8
1
 66
1
 10
0.0000
 20
0.0000
 30
0.0000
 40
0.3048
 41
0.3048
 70
0
  0
VERTEX
  8
1
 10
38.0400
 20
14.2875
 30
0.0000
  0
VERTEX
  8
1
 10
7.9375
 20
14.2875
 30
0.0000
  0
SEQEND
  8
0
  0
POLYLINE
  8
1
 66
1
 10
0.0000
 20
0.0000
 30
0.0000
 40
0.1524
 41
0.1524
 70
0
  0
VERTEX
  8
1
 10
7.9375
 20
14.3637
 30
0.0000
 42
1.0000
  0
VERTEX
  8
1
 10
7.9375
 20
14.2113
 30
0.0000
  0
SEQEND
  8
0
  0
POLYLINE
  8
1
 66
1
 10
0.0000
 20
0.0000
 30
0.0000
 40
0.1524
 41
0.1524
 70
0
  0
VERTEX
  8
1
 10
38.0400
 20
14.2113
 30
0.0000
 42
1.0000
  0
VERTEX
  8
1
 10
38.0400
 20
14.3637
 30
0.0000
  0
SEQEND
  8
0
  0
POLYLINE
  8
1
 66
1
 10
0.0000
 20
0.0000
 30
0.0000
 40
0.3048
 41
0.3048
 70
0
  0
VERTEX
  8
1
 10
7.9375
 20
14.2875
 30
0.0000
  0
VERTEX
  8
1
 10
3.8100
 20
18.4150
 30
0.0000
  0
SEQEND
  8
0
  0
POLYLINE
  8
1
 66
1
 10
0.0000
 20
0.0000
 30
0.0000
 40
0.1524
 41
0.1524
 70
0
  0
VERTEX
  8
1
 10
3.8639
 20
18.4689
 30
0.0000
 42
1.0000
  0
VERTEX
  8
1
 10
3.7561
 20
18.3611
 30
0.0000
  0
SEQEND
  8
0
  0
POLYLINE
  8
1
 66
1
 10
0.0000
 20
0.0000
 30
0.0000
 40
0.1524
 41
0.1524
 70
0
  0
VERTEX
  8
1
 10
7.8836
 20
14.2336
 30
0.0000
 42
1.0000
  0
VERTEX
  8
1
 10
7.9914
 20
14.3414
 30
0.0000
  0
SEQEND
  8
0
  0
POLYLINE
  8
1
 66
1
 10
0.0000
 20
0.0000
 30
0.0000
 40
0.3048
 41
0.3048
 70
0
  0
VERTEX
  8
1
 10
3.8100
 20
18.4150
 30
0.0000
  0
VERTEX
  8
1
 10
2.5400
 20
18.4150
 30
0.0000
  0
SEQEND
  8
0
  0
POLYLINE
  8
1
 66
1
 10
0.0000
 20
0.0000
 30
0.0000
 40
0.1524
 41
0.1524
 70
0
  0
VERTEX
  8
1
 10
2.5400
 20
18.4912
 30
0.0000
 42
1.0000
  0
VERTEX
  8
1
 10
2.5400
 20
18.3388
 30
0.0000
  0
SEQEND
  8
0
  0
POLYLINE
  8
1
 66
1
 10
0.0000
 20
0.0000
 30
0.0000
 40
0.1524
 41
0.1524
 70
0
  0
VERTEX
  8
1
 10
3.8100
 20
18.3388
 30
0.0000
 42
1.0000
  0
VERTEX
  8
1
 10
3.8100
 20
18.4912
 30
0.0000
  0
SEQEND
  8
0
  0
POLYLINE
  8
1
 66
1
 10
0.0000
 20
0.0000
 30
0.0000
 40
0.3048
 41
0.3048
 70
0
  0
VERTEX
  8
1
 10
43.2400
 20
13.6525
 30
0.0000
  0
VERTEX
  8
1
 10
72.3900
 20
13.6525
 30
0.0000
  0
SEQEND
  8
0
  0
POLYLINE
  8
1
 66
1
 10
0.0000
 20
0.0000
 30
0.0000
 40
0.1524
 41
0.1524
 70
0
  0
VERTEX
  8
1
 10
72.3900
 20
13.5763
 30
0.0000
 42
1.0000
  0
VERTEX
  8
1
 10
72.3900
 20
13.7287
 30
0.0000
  0
SEQEND
  8
0
  0
POLYLINE
  8
1
 66
1
 10
0.0000
 20
0.0000
 30
0.0000
 40
0.1524
 41
0.1524
 70
0
  0
VERTEX
  8
1
 10
43.2400
 20
13.7287
 30
0.0000
 42
1.0000
  0
VERTEX
  8
1
 10
43.2400
 20
13.5763
 30
0.0000
  0
SEQEND
  8
0
  0
POLYLINE
  8
1
 66
1
 10
0.0000
 20
0.0000
 30
0.0000
 40
0.3048
 41
0.3048
 70
0
  0
VERTEX
  8
1
 10
72.3900
 20
13.6525
 30
0.0000
  0
VERTEX
  8
1
 10
77.1525
 20
18.4150
 30
0.0000
  0
SEQEND
  8
0
  0
POLYLINE
  8
1
 66
1
 10
0.0000
 20
0.0000
 30
0.0000
 40
0.1524
 41
0.1524
 70
0
  0
VERTEX
  8
1
 10
77.2064
 20
18.3611
 30
0.0000
 42
1.0000
  0
VERTEX
  8
1
 10
77.0986
 20
18.4689
 30
0.0000
  0
SEQEND
  8
0
  0
POLYLINE
  8
1
 66
1
 10
0.0000
 20
0.0000
 30
0.0000
 40
0.1524
 41
0.1524
 70
0
  0
VERTEX
  8
1
 10
72.3361
 20
13.7064
 30
0.0000
 42
1.0000
  0
VERTEX
  8
1
 10
72.4439
 20
13.5986
 30
0.0000
  0
SEQEND
  8
0
  0
POLYLINE
  8
1
 66
1
 10
0.0000
 20
0.0000
 30
0.0000
 40
0.3048
 41
0.3048
 70
0
  0
VERTEX
  8
1
 10
77.1525
 20
18.4150
 30
0.0000
  0
VERTEX
  8
1
 10
78.7400
 20
18.4150
 30
0.0000
  0
SEQEND
  8
0
  0
POLYLINE
  8
1
 66
1
 10
0.0000
 20
0.0000
 30
0.0000
 40
0.1524
 41
0.1524
 70
0
  0
VERTEX
  8
1
 10
78.7400
 20
18.3388
 30
0.0000
 42
1.0000
  0
VERTEX
  8
1
 10
78.7400
 20
18.4912
 30
0.0000
  0
SEQEND
  8
0
  0
POLYLINE
  8
1
 66
1
 10
0.0000
 20
0.0000
 30
0.0000
 40
0.1524
 41
0.1524
 70
0
  0
VERTEX
  8
1
 10
77.1525
 20
18.4912
 30
0.0000
 42
1.0000
  0
VERTEX
  8
1
 10
77.1525
 20
18.3388
 30
0.0000
  0
SEQEND
  8
0
  0
POLYLINE
  8
1
 66
1
 10
0.0000
 20
0.0000
 30
0.0000
 40
0.3048
 41
0.3048
 70
0
  0
VERTEX
  8
1
 10
-0.3175
 20
26.0350
 30
0.0000
  0
VERTEX
  8
1
 10
81.9150
 20
26.0350
 30
0.0000
  0
SEQEND
  8
0
  0
POLYLINE
  8
1
 66
1
 10
0.0000
 20
0.0000
 30
0.0000
 40
0.1524
 41
0.1524
 70
0
  0
VERTEX
  8
1
 10
81.9150
 20
25.9588
 30
0.0000
 42
1.0000
  0
VERTEX
  8
1
 10
81.9150
 20
26.1112
 30
0.0000
  0
SEQEND
  8
0
  0
POLYLINE
  8
1
 66
1
 10
0.0000
 20
0.0000
 30
0.0000
 40
0.1524
 41
0.1524
 70
0
  0
VERTEX
  8
1
 10
-0.3175
 20
26.1112
 30
0.0000
 42
1.0000
  0
VERTEX
  8
1
 10
-0.3175
 20
25.9588
 30
0.0000
  0
SEQEND
  8
0
  0
POLYLINE
  8
1
 66
1
 10
0.0000
 20
0.0000
 30
0.0000
 40
0.3048
 41
0.3048
 70
0
  0
VERTEX
  8
1
 10
81.9150
 20
26.0350
 30
0.0000
  0
VERTEX
  8
1
 10
81.9150
 20
10.7950
 30
0.0000
  0
SEQEND
  8
0
  0
POLYLINE
  8
1
 66
1
 10
0.0000
 20
0.0000
 30
0.0000
 40
0.1524
 41
0.1524
 70
0
  0
VERTEX
  8
1
 10
81.8388
 20
10.7950
 30
0.0000
 42
1.0000
  0
VERTEX
  8
1
 10
81.9912
 20
10.7950
 30
0.0000
  0
SEQEND
  8
0
  0
POLYLINE
  8
1
 66
1
 10
0.0000
 20
0.0000
 30
0.0000
 40
0.1524
 41
0.1524
 70
0
  0
VERTEX
  8
1
 10
81.9912
 20
26.0350
 30
0.0000
 42
1.0000
  0
VERTEX
  8
1
 10
81.8388
 20
26.0350
 30
0.0000
  0
SEQEND
  8
0
  0
POLYLINE
  8
1
 66
1
 10
0.0000
 20
0.0000
 30
0.0000
 40
0.3048
 41
0.3048
 70
0
  0
VERTEX
  8
1
 10
81.9150
 20
10.7950
 30
0.0000
  0
VERTEX
  8
1
 10
-0.3175
 20
10.7950
 30
0.0000
  0
SEQEND
  8
0
  0
POLYLINE
  8
1
 66
1
 10
0.0000
 20
0.0000
 30
0.0000
 40
0.1524
 41
0.1524
 70
0
  0
VERTEX
  8
1
 10
-0.3175
 20
10.8712
 30
0.0000
 42
1.0000
  0
VERTEX
  8
1
 10
-0.3175
 20
10.7188
 30
0.0000
  0
SEQEND
  8
0
  0
POLYLINE
  8
1
 66
1
 10
0.0000
 20
0.0000
 30
0.0000
 40
0.1524
 41
0.1524
 70
0
  0
VERTEX
  8
1
 10
81.9150
 20
10.7188
 30
0.0000
 42
1.0000
  0
VERTEX
  8
1
 10
81.9150
 20
10.8712
 30
0.0000
  0
SEQEND
  8
0
  0
POLYLINE
  8
1
 66
1
 10
0.0000
 20
0.0000
 30
0.0000
 40
0.3048
 41
0.3048
 70
0
  0
VERTEX
  8
1
 10
-0.3175
 20
10.7950
 30
0.0000
  0
VERTEX
  8
1
 10
-0.3175
 20
26.0350
 30
0.0000
  0
SEQEND
  8
0
  0
POLYLINE
  8
1
 66
1
 10
0.0000
 20
0.0000
 30
0.0000
 40
0.1524
 41
0.1524
 70
0
  0
VERTEX
  8
1
 10
-0.2413
 20
26.0350
 30
0.0000
 42
1.0000
  0
VERTEX
  8
1
 10
-0.3937
 20
26.0350
 30
0.0000
  0
SEQEND
  8
0
  0
POLYLINE
  8
1
 66
1
 10
0.0000
 20
0.0000
 30
0.0000
 40
0.1524
 41
0.1524
 70
0
  0
VERTEX
  8
1
 10
-0.3937
 20
10.7950
 30
0.0000
 42
1.0000
  0
VERTEX
  8
1
 10
-0.2413
 20
10.7950
 30
0.0000
  0
SEQEND
  8
0
  0
POLYLINE
  8
1
 66
1
 10
0.0000
 20
0.0000
 30
0.0000
 40
0.3048
 41
0.3048
 70
0
  0
VERTEX
  8
1
 10
2.5400
 20
13.3350
 30
0.0000
  0
VERTEX
  8
1
 10
4.1275
 20
13.3350
 30
0.0000
  0
SEQEND
  8
0
  0
POLYLINE
  8
1
 66
1
 10
0.0000
 20
0.0000
 30
0.0000
 40
0.1524
 41
0.1524
 70
0
  0
VERTEX
  8
1
 10
4.1275
 20
13.2588
 30
0.0000
 42
1.0000
  0
VERTEX
  8
1
 10
4.1275
 20
13.4112
 30
0.0000
  0
SEQEND
  8
0
  0
POLYLINE
  8
1
 66
1
 10
0.0000
 20
0.0000
 30
0.0000
 40
0.1524
 41
0.1524
 70
0
  0
VERTEX
  8
1
 10
2.5400
 20
13.4112
 30
0.0000
 42
1.0000
  0
VERTEX
  8
1
 10
2.5400
 20
13.2588
 30
0.0000
  0
SEQEND
  8
0
  0
POLYLINE
  8
1
 66
1
 10
0.0000
 20
0.0000
 30
0.0000
 40
0.3048
 41
0.3048
 70
0
  0
VERTEX
  8
1
 10
4.1275
 20
13.3350
 30
0.0000
  0
VERTEX
  8
1
 10
4.4450
 20
13.0175
 30
0.0000
  0
SEQEND
  8
0
  0
POLYLINE
  8
1
 66
1
 10
0.0000
 20
0.0000
 30
0.0000
 40
0.1524
 41
0.1524
 70
0
  0
VERTEX
  8
1
 10
4.3911
 20
12.9636
 30
0.0000
 42
1.0000
  0
VERTEX
  8
1
 10
4.4989
 20
13.0714
 30
0.0000
  0
SEQEND
  8
0
  0
POLYLINE
  8
1
 66
1
 10
0.0000
 20
0.0000
 30
0.0000
 40
0.1524
 41
0.1524
 70
0
  0
VERTEX
  8
1
 10
4.1814
 20
13.3889
 30
0.0000
 42
1.0000
  0
VERTEX
  8
1
 10
4.0736
 20
13.2811
 30
0.0000
  0
SEQEND
  8
0
  0
POLYLINE
  8
1
 66
1
 10
0.0000
 20
0.0000
 30
0.0000
 40
0.3048
 41
0.3048
 70
0
  0
VERTEX
  8
1
 10
4.4450
 20
13.0175
 30
0.0000
  0
VERTEX
  8
1
 10
38.0400
 20
13.0175
 30
0.0000
  0
SEQEND
  8
0
  0
POLYLINE
  8
1
 66
1
 10
0.0000
 20
0.0000
 30
0.0000
 40
0.1524
 41
0.1524
 70
0
  0
VERTEX
  8
1
 10
38.0400
 20
12.9413
 30
0.0000
 42
1.0000
  0
VERTEX
  8
1
 10
38.0400
 20
13.0937
 30
0.0000
  0
SEQEND
  8
0
  0
POLYLINE
  8
1
 66
1
 10
0.0000
 20
0.0000
 30
0.0000
 40
0.1524
 41
0.1524
 70
0
  0
VERTEX
  8
1
 10
4.4450
 20
13.0937
 30
0.0000
 42
1.0000
  0
VERTEX
  8
1
 10
4.4450
 20
12.9413
 30
0.0000
  0
SEQEND
  8
0
  0
POLYLINE
  8
16
 66
1
 10
0.0000
 20
0.0000
 30
0.0000
 40
0.3048
 41
0.3048
 70
0
  0
VERTEX
  8
16
 10
78.7400
 20
13.3350
 30
0.0000
  0
VERTEX
  8
16
 10
76.8350
 20
15.2400
 30
0.0000
  0
SEQEND
  8
0
  0
POLYLINE
  8
16
 66
1
 10
0.0000
 20
0.0000
 30
0.0000
 40
0.1524
 41
0.1524
 70
0
  0
VERTEX
  8
16
 10
76.8889
 20
15.2939
 30
0.0000
 42
1.0000
  0
VERTEX
  8
16
 10
76.7811
 20
15.1861
 30
0.0000
  0
SEQEND
  8
0
  0
POLYLINE
  8
16
 66
1
 10
0.0000
 20
0.0000
 30
0.0000
 40
0.1524
 41
0.1524
 70
0
  0
VERTEX
  8
16
 10
78.6861
 20
13.2811
 30
0.0000
 42
1.0000
  0
VERTEX
  8
16
 10
78.7939
 20
13.3889
 30
0.0000
  0
SEQEND
  8
0
  0
POLYLINE
  8
16
 66
1
 10
0.0000
 20
0.0000
 30
0.0000
 40
0.3048
 41
0.3048
 70
0
  0
VERTEX
  8
16
 10
76.8350
 20
15.2400
 30
0.0000
  0
VERTEX
  8
16
 10
4.4450
 20
15.2400
 30
0.0000
  0
SEQEND
  8
0
  0
POLYLINE
  8
16
 66
1
 10
0.0000
 20
0.0000
 30
0.0000
 40
0.1524
 41
0.1524
 70
0
  0
VERTEX
  8
16
 10
4.4450
 20
15.3162
 30
0.0000
 42
1.0000
  0
VERTEX
  8
16
 10
4.4450
 20
15.1638
 30
0.0000
  0
SEQEND
  8
0
  0
POLYLINE
  8
16
 66
1
 10
0.0000
 20
0.0000
 30
0.0000
 40
0.1524
 41
0.1524
 70
0
  0
VERTEX
  8
16
 10
76.8350
 20
15.1638
 30
0.0000
 42
1.0000
  0
VERTEX
  8
16
 10
76.8350
 20
15.3162
 30
0.0000
  0
SEQEND
  8
0
  0
POLYLINE
  8
16
 66
1
 10
0.0000
 20
0.0000
 30
0.0000
 40
0.3048
 41
0.3048
 70
0
  0
VERTEX
  8
16
 10
4.4450
 20
15.2400
 30
0.0000
  0
VERTEX
  8
16
 10
2.5400
 20
13.3350
 30
0.0000
  0
SEQEND
  8
0
  0
POLYLINE
  8
16
 66
1
 10
0.0000
 20
0.0000
 30
0.0000
 40
0.1524
 41
0.1524
 70
0
  0
VERTEX
  8
16
 10
2.4861
 20
13.3889
 30
0.0000
 42
1.0000
  0
VERTEX
  8
16
 10
2.5939
 20
13.2811
 30
0.0000
  0
SEQEND
  8
0
  0
POLYLINE
  8
16
 66
1
 10
0.0000
 20
0.0000
 30
0.0000
 40
0.1524
 41
0.1524
 70
0
  0
VERTEX
  8
16
 10
4.4989
 20
15.1861
 30
0.0000
 42
1.0000
  0
VERTEX
  8
16
 10
4.3911
 20
15.2939
 30
0.0000
  0
SEQEND
  8
0
  0
POLYLINE
  8
1
 66
1
 10
0.0000
 20
0.0000
 30
0.0000
 40
0.3048
 41
0.3048
 70
0
  0
VERTEX
  8
1
 10
3.8100
 20
2.5400
 30
0.0000
  0
VERTEX
  8
1
 10
5.7150
 20
4.4450
 30
0.0000
  0
SEQEND
  8
0
  0
POLYLINE
  8
1
 66
1
 10
0.0000
 20
0.0000
 30
0.0000
 40
0.1524
 41
0.1524
 70
0
  0
VERTEX
  8
1
 10
5.7689
 20
4.3911
 30
0.0000
 42
1.0000
  0
VERTEX
  8
1
 10
5.6611
 20
4.4989
 30
0.0000
  0
SEQEND
  8
0
  0
POLYLINE
  8
1
 66
1
 10
0.0000
 20
0.0000
 30
0.0000
 40
0.1524
 41
0.1524
 70
0
  0
VERTEX
  8
1
 10
3.7561
 20
2.5939
 30
0.0000
 42
1.0000
  0
VERTEX
  8
1
 10
3.8639
 20
2.4861
 30
0.0000
  0
SEQEND
  8
0
  0
POLYLINE
  8
1
 66
1
 10
0.0000
 20
0.0000
 30
0.0000
 40
0.3048
 41
0.3048
 70
0
  0
VERTEX
  8
1
 10
5.7150
 20
4.4450
 30
0.0000
  0
VERTEX
  8
1
 10
9.8425
 20
4.4450
 30
0.0000
  0
SEQEND
  8
0
  0
POLYLINE
  8
1
 66
1
 10
0.0000
 20
0.0000
 30
0.0000
 40
0.1524
 41
0.1524
 70
0
  0
VERTEX
  8
1
 10
9.8425
 20
4.3688
 30
0.0000
 42
1.0000
  0
VERTEX
  8
1
 10
9.8425
 20
4.5212
 30
0.0000
  0
SEQEND
  8
0
  0
POLYLINE
  8
1
 66
1
 10
0.0000
 20
0.0000
 30
0.0000
 40
0.1524
 41
0.1524
 70
0
  0
VERTEX
  8
1
 10
5.7150
 20
4.5212
 30
0.0000
 42
1.0000
  0
VERTEX
  8
1
 10
5.7150
 20
4.3688
 30
0.0000
  0
SEQEND
  8
0
  0
POLYLINE
  8
1
 66
1
 10
0.0000
 20
0.0000
 30
0.0000
 40
0.3048
 41
0.3048
 70
0
  0
VERTEX
  8
1
 10
9.8425
 20
4.4450
 30
0.0000
  0
VERTEX
  8
1
 10
12.7000
 20
7.3025
 30
0.0000
  0
SEQEND
  8
0
  0
POLYLINE
  8
1
 66
1
 10
0.0000
 20
0.0000
 30
0.0000
 40
0.1524
 41
0.1524
 70
0
  0
VERTEX
  8
1
 10
12.7539
 20
7.2486
 30
0.0000
 42
1.0000
  0
VERTEX
  8
1
 10
12.6461
 20
7.3564
 30
0.0000
  0
SEQEND
  8
0
  0
POLYLINE
  8
1
 66
1
 10
0.0000
 20
0.0000
 30
0.0000
 40
0.1524
 41
0.1524
 70
0
  0
VERTEX
  8
1
 10
9.7886
 20
4.4989
 30
0.0000
 42
1.0000
  0
VERTEX
  8
1
 10
9.8964
 20
4.3911
 30
0.0000
  0
SEQEND
  8
0
  0
POLYLINE
  8
1
 66
1
 10
0.0000
 20
0.0000
 30
0.0000
 40
0.3048
 41
0.3048
 70
0
  0
VERTEX
  8
1
 10
12.7000
 20
7.3025
 30
0.0000
  0
VERTEX
  8
1
 10
29.2100
 20
7.3025
 30
0.0000
  0
SEQEND
  8
0
  0
POLYLINE
  8
1
 66
1
 10
0.0000
 20
0.0000
 30
0.0000
 40
0.1524
 41
0.1524
 70
0
  0
VERTEX
  8
1
 10
29.2100
 20
7.2263
 30
0.0000
 42
1.0000
  0
VERTEX
  8
1
 10
29.2100
 20
7.3787
 30
0.0000
  0
SEQEND
  8
0
  0
POLYLINE
  8
1
 66
1
 10
0.0000
 20
0.0000
 30
0.0000
 40
0.1524
 41
0.1524
 70
0
  0
VERTEX
  8
1
 10
12.7000
 20
7.3787
 30
0.0000
 42
1.0000
  0
VERTEX
  8
1
 10
12.7000
 20
7.2263
 30
0.0000
  0
SEQEND
  8
0
  0
POLYLINE
  8
1
 66
1
 10
0.0000
 20
0.0000
 30
0.0000
 40
0.3048
 41
0.3048
 70
0
  0
VERTEX
  8
1
 10
29.2100
 20
7.3025
 30
0.0000
  0
VERTEX
  8
1
 10
34.2900
 20
12.3825
 30
0.0000
  0
SEQEND
  8
0
  0
POLYLINE
  8
1
 66
1
 10
0.0000
 20
0.0000
 30
0.0000
 40
0.1524
 41
0.1524
 70
0
  0
VERTEX
  8
1
 10
34.3439
 20
12.3286
 30
0.0000
 42
1.0000
  0
VERTEX
  8
1
 10
34.2361
 20
12.4364
 30
0.0000
  0
SEQEND
  8
0
  0
POLYLINE
  8
1
 66
1
 10
0.0000
 20
0.0000
 30
0.0000
 40
0.1524
 41
0.1524
 70
0
  0
VERTEX
  8
1
 10
29.1561
 20
7.3564
 30
0.0000
 42
1.0000
  0
VERTEX
  8
1
 10
29.2639
 20
7.2486
 30
0.0000
  0
SEQEND
  8
0
  0
POLYLINE
  8
1
 66
1
 10
0.0000
 20
0.0000
 30
0.0000
 40
0.3048
 41
0.3048
 70
0
  0
VERTEX
  8
1
 10
34.2900
 20
12.3825
 30
0.0000
  0
VERTEX
  8
1
 10
38.0400
 20
12.3825
 30
0.0000
  0
SEQEND
  8
0
  0
POLYLINE
  8
1
 66
1
 10
0.0000
 20
0.0000
 30
0.0000
 40
0.1524
 41
0.1524
 70
0
  0
VERTEX
  8
1
 10
38.0400
 20
12.3063
 30
0.0000
 42
1.0000
  0
VERTEX
  8
1
 10
38.0400
 20
12.4587
 30
0.0000
  0
SEQEND
  8
0
  0
POLYLINE
  8
1
 66
1
 10
0.0000
 20
0.0000
 30
0.0000
 40
0.1524
 41
0.1524
 70
0
  0
VERTEX
  8
1
 10
34.2900
 20
12.4587
 30
0.0000
 42
1.0000
  0
VERTEX
  8
1
 10
34.2900
 20
12.3063
 30
0.0000
  0
SEQEND
  8
0
  0
POLYLINE
  8
1
 66
1
 10
0.0000
 20
0.0000
 30
0.0000
 40
0.3048
 41
0.3048
 70
0
  0
VERTEX
  8
1
 10
8.8900
 20
2.5400
 30
0.0000
  0
VERTEX
  8
1
 10
13.0175
 20
6.6675
 30
0.0000
  0
SEQEND
  8
0
  0
POLYLINE
  8
1
 66
1
 10
0.0000
 20
0.0000
 30
0.0000
 40
0.1524
 41
0.1524
 70
0
  0
VERTEX
  8
1
 10
13.0714
 20
6.6136
 30
0.0000
 42
1.0000
  0
VERTEX
  8
1
 10
12.9636
 20
6.7214
 30
0.0000
  0
SEQEND
  8
0
  0
POLYLINE
  8
1
 66
1
 10
0.0000
 20
0.0000
 30
0.0000
 40
0.1524
 41
0.1524
 70
0
  0
VERTEX
  8
1
 10
8.8361
 20
2.5939
 30
0.0000
 42
1.0000
  0
VERTEX
  8
1
 10
8.9439
 20
2.4861
 30
0.0000
  0
SEQEND
  8
0
  0
POLYLINE
  8
1
 66
1
 10
0.0000
 20
0.0000
 30
0.0000
 40
0.3048
 41
0.3048
 70
0
  0
VERTEX
  8
1
 10
13.0175
 20
6.6675
 30
0.0000
  0
VERTEX
  8
1
 10
29.5275
 20
6.6675
 30
0.0000
  0
SEQEND
  8
0
  0
POLYLINE
  8
1
 66
1
 10
0.0000
 20
0.0000
 30
0.0000
 40
0.1524
 41
0.1524
 70
0
  0
VERTEX
  8
1
 10
29.5275
 20
6.5913
 30
0.0000
 42
1.0000
  0
VERTEX
  8
1
 10
29.5275
 20
6.7437
 30
0.0000
  0
SEQEND
  8
0
  0
POLYLINE
  8
1
 66
1
 10
0.0000
 20
0.0000
 30
0.0000
 40
0.1524
 41
0.1524
 70
0
  0
VERTEX
  8
1
 10
13.0175
 20
6.7437
 30
0.0000
 42
1.0000
  0
VERTEX
  8
1
 10
13.0175
 20
6.5913
 30
0.0000
  0
SEQEND
  8
0
  0
POLYLINE
  8
1
 66
1
 10
0.0000
 20
0.0000
 30
0.0000
 40
0.3048
 41
0.3048
 70
0
  0
VERTEX
  8
1
 10
29.5275
 20
6.6675
 30
0.0000
  0
VERTEX
  8
1
 10
34.6075
 20
11.7475
 30
0.0000
  0
SEQEND
  8
0
  0
POLYLINE
  8
1
 66
1
 10
0.0000
 20
0.0000
 30
0.0000
 40
0.1524
 41
0.1524
 70
0
  0
VERTEX
  8
1
 10
34.6614
 20
11.6936
 30
0.0000
 42
1.0000
  0
VERTEX
  8
1
 10
34.5536
 20
11.8014
 30
0.0000
  0
SEQEND
  8
0
  0
POLYLINE
  8
1
 66
1
 10
0.0000
 20
0.0000
 30
0.0000
 40
0.1524
 41
0.1524
 70
0
  0
VERTEX
  8
1
 10
29.4736
 20
6.7214
 30
0.0000
 42
1.0000
  0
VERTEX
  8
1
 10
29.5814
 20
6.6136
 30
0.0000
  0
SEQEND
  8
0
  0
POLYLINE
  8
1
 66
1
 10
0.0000
 20
0.0000
 30
0.0000
 40
0.3048
 41
0.3048
 70
0
  0
VERTEX
  8
1
 10
34.6075
 20
11.7475
 30
0.0000
  0
VERTEX
  8
1
 10
38.0400
 20
11.7475
 30
0.0000
  0
SEQEND
  8
0
  0
POLYLINE
  8
1
 66
1
 10
0.0000
 20
0.0000
 30
0.0000
 40
0.1524
 41
0.1524
 70
0
  0
VERTEX
  8
1
 10
38.0400
 20
11.6713
 30
0.0000
 42
1.0000
  0
VERTEX
  8
1
 10
38.0400
 20
11.8237
 30
0.0000
  0
SEQEND
  8
0
  0
POLYLINE
  8
1
 66
1
 10
0.0000
 20
0.0000
 30
0.0000
 40
0.1524
 41
0.1524
 70
0
  0
VERTEX
  8
1
 10
34.6075
 20
11.8237
 30
0.0000
 42
1.0000
  0
VERTEX
  8
1
 10
34.6075
 20
11.6713
 30
0.0000
  0
SEQEND
  8
0
  0
POLYLINE
  8
1
 66
1
 10
0.0000
 20
0.0000
 30
0.0000
 40
0.3048
 41
0.3048
 70
0
  0
VERTEX
  8
1
 10
13.9700
 20
2.5400
 30
0.0000
  0
VERTEX
  8
1
 10
17.4625
 20
6.0325
 30
0.0000
  0
SEQEND
  8
0
  0
POLYLINE
  8
1
 66
1
 10
0.0000
 20
0.0000
 30
0.0000
 40
0.1524
 41
0.1524
 70
0
  0
VERTEX
  8
1
 10
17.5164
 20
5.9786
 30
0.0000
 42
1.0000
  0
VERTEX
  8
1
 10
17.4086
 20
6.0864
 30
0.0000
  0
SEQEND
  8
0
  0
POLYLINE
  8
1
 66
1
 10
0.0000
 20
0.0000
 30
0.0000
 40
0.1524
 41
0.1524
 70
0
  0
VERTEX
  8
1
 10
13.9161
 20
2.5939
 30
0.0000
 42
1.0000
  0
VERTEX
  8
1
 10
14.0239
 20
2.4861
 30
0.0000
  0
SEQEND
  8
0
  0
POLYLINE
  8
1
 66
1
 10
0.0000
 20
0.0000
 30
0.0000
 40
0.3048
 41
0.3048
 70
0
  0
VERTEX
  8
1
 10
17.4625
 20
6.0325
 30
0.0000
  0
VERTEX
  8
1
 10
29.8450
 20
6.0325
 30
0.0000
  0
SEQEND
  8
0
  0
POLYLINE
  8
1
 66
1
 10
0.0000
 20
0.0000
 30
0.0000
 40
0.1524
 41
0.1524
 70
0
  0
VERTEX
  8
1
 10
29.8450
 20
5.9563
 30
0.0000
 42
1.0000
  0
VERTEX
  8
1
 10
29.8450
 20
6.1087
 30
0.0000
  0
SEQEND
  8
0
  0
POLYLINE
  8
1
 66
1
 10
0.0000
 20
0.0000
 30
0.0000
 40
0.1524
 41
0.1524
 70
0
  0
VERTEX
  8
1
 10
17.4625
 20
6.1087
 30
0.0000
 42
1.0000
  0
VERTEX
  8
1
 10
17.4625
 20
5.9563
 30
0.0000
  0
SEQEND
  8
0
  0
POLYLINE
  8
1
 66
1
 10
0.0000
 20
0.0000
 30
0.0000
 40
0.3048
 41
0.3048
 70
0
  0
VERTEX
  8
1
 10
29.8450
 20
6.0325
 30
0.0000
  0
VERTEX
  8
1
 10
34.9250
 20
11.1125
 30
0.0000
  0
SEQEND
  8
0
  0
POLYLINE
  8
1
 66
1
 10
0.0000
 20
0.0000
 30
0.0000
 40
0.1524
 41
0.1524
 70
0
  0
VERTEX
  8
1
 10
34.9789
 20
11.0586
 30
0.0000
 42
1.0000
  0
VERTEX
  8
1
 10
34.8711
 20
11.1664
 30
0.0000
  0
SEQEND
  8
0
  0
POLYLINE
  8
1
 66
1
 10
0.0000
 20
0.0000
 30
0.0000
 40
0.1524
 41
0.1524
 70
0
  0
VERTEX
  8
1
 10
29.7911
 20
6.0864
 30
0.0000
 42
1.0000
  0
VERTEX
  8
1
 10
29.8989
 20
5.9786
 30
0.0000
  0
SEQEND
  8
0
  0
POLYLINE
  8
1
 66
1
 10
0.0000
 20
0.0000
 30
0.0000
 40
0.3048
 41
0.3048
 70
0
  0
VERTEX
  8
1
 10
34.9250
 20
11.1125
 30
0.0000
  0
VERTEX
  8
1
 10
38.0400
 20
11.1125
 30
0.0000
  0
SEQEND
  8
0
  0
POLYLINE
  8
1
 66
1
 10
0.0000
 20
0.0000
 30
0.0000
 40
0.1524
 41
0.1524
 70
0
  0
VERTEX
  8
1
 10
38.0400
 20
11.0363
 30
0.0000
 42
1.0000
  0
VERTEX
  8
1
 10
38.0400
 20
11.1887
 30
0.0000
  0
SEQEND
  8
0
  0
POLYLINE
  8
1
 66
1
 10
0.0000
 20
0.0000
 30
0.0000
 40
0.1524
 41
0.1524
 70
0
  0
VERTEX
  8
1
 10
34.9250
 20
11.1887
 30
0.0000
 42
1.0000
  0
VERTEX
  8
1
 10
34.9250
 20
11.0363
 30
0.0000
  0
SEQEND
  8
0
  0
POLYLINE
  8
1
 66
1
 10
0.0000
 20
0.0000
 30
0.0000
 40
0.3048
 41
0.3048
 70
0
  0
VERTEX
  8
1
 10
19.0500
 20
2.5400
 30
0.0000
  0
VERTEX
  8
1
 10
21.9075
 20
5.3975
 30
0.0000
  0
SEQEND
  8
0
  0
POLYLINE
  8
1
 66
1
 10
0.0000
 20
0.0000
 30
0.0000
 40
0.1524
 41
0.1524
 70
0
  0
VERTEX
  8
1
 10
21.9614
 20
5.3436
 30
0.0000
 42
1.0000
  0
VERTEX
  8
1
 10
21.8536
 20
5.4514
 30
0.0000
  0
SEQEND
  8
0
  0
POLYLINE
  8
1
 66
1
 10
0.0000
 20
0.0000
 30
0.0000
 40
0.1524
 41
0.1524
 70
0
  0
VERTEX
  8
1
 10
18.9961
 20
2.5939
 30
0.0000
 42
1.0000
  0
VERTEX
  8
1
 10
19.1039
 20
2.4861
 30
0.0000
  0
SEQEND
  8
0
  0
POLYLINE
  8
1
 66
1
 10
0.0000
 20
0.0000
 30
0.0000
 40
0.3048
 41
0.3048
 70
0
  0
VERTEX
  8
1
 10
21.9075
 20
5.3975
 30
0.0000
  0
VERTEX
  8
1
 10
30.1625
 20
5.3975
 30
0.0000
  0
SEQEND
  8
0
  0
POLYLINE
  8
1
 66
1
 10
0.0000
 20
0.0000
 30
0.0000
 40
0.1524
 41
0.1524
 70
0
  0
VERTEX
  8
1
 10
30.1625
 20
5.3213
 30
0.0000
 42
1.0000
  0
VERTEX
  8
1
 10
30.1625
 20
5.4737
 30
0.0000
  0
SEQEND
  8
0
  0
POLYLINE
  8
1
 66
1
 10
0.0000
 20
0.0000
 30
0.0000
 40
0.1524
 41
0.1524
 70
0
  0
VERTEX
  8
1
 10
21.9075
 20
5.4737
 30
0.0000
 42
1.0000
  0
VERTEX
  8
1
 10
21.9075
 20
5.3213
 30
0.0000
  0
SEQEND
  8
0
  0
POLYLINE
  8
1
 66
1
 10
0.0000
 20
0.0000
 30
0.0000
 40
0.3048
 41
0.3048
 70
0
  0
VERTEX
  8
1
 10
30.1625
 20
5.3975
 30
0.0000
  0
VERTEX
  8
1
 10
35.2425
 20
10.4775
 30
0.0000
  0
SEQEND
  8
0
  0
POLYLINE
  8
1
 66
1
 10
0.0000
 20
0.0000
 30
0.0000
 40
0.1524
 41
0.1524
 70
0
  0
VERTEX
  8
1
 10
35.2964
 20
10.4236
 30
0.0000
 42
1.0000
  0
VERTEX
  8
1
 10
35.1886
 20
10.5314
 30
0.0000
  0
SEQEND
  8
0
  0
POLYLINE
  8
1
 66
1
 10
0.0000
 20
0.0000
 30
0.0000
 40
0.1524
 41
0.1524
 70
0
  0
VERTEX
  8
1
 10
30.1086
 20
5.4514
 30
0.0000
 42
1.0000
  0
VERTEX
  8
1
 10
30.2164
 20
5.3436
 30
0.0000
  0
SEQEND
  8
0
  0
POLYLINE
  8
1
 66
1
 10
0.0000
 20
0.0000
 30
0.0000
 40
0.3048
 41
0.3048
 70
0
  0
VERTEX
  8
1
 10
35.2425
 20
10.4775
 30
0.0000
  0
VERTEX
  8
1
 10
38.0400
 20
10.4775
 30
0.0000
  0
SEQEND
  8
0
  0
POLYLINE
  8
1
 66
1
 10
0.0000
 20
0.0000
 30
0.0000
 40
0.1524
 41
0.1524
 70
0
  0
VERTEX
  8
1
 10
38.0400
 20
10.4013
 30
0.0000
 42
1.0000
  0
VERTEX
  8
1
 10
38.0400
 20
10.5537
 30
0.0000
  0
SEQEND
  8
0
  0
POLYLINE
  8
1
 66
1
 10
0.0000
 20
0.0000
 30
0.0000
 40
0.1524
 41
0.1524
 70
0
  0
VERTEX
  8
1
 10
35.2425
 20
10.5537
 30
0.0000
 42
1.0000
  0
VERTEX
  8
1
 10
35.2425
 20
10.4013
 30
0.0000
  0
SEQEND
  8
0
  0
POLYLINE
  8
1
 66
1
 10
0.0000
 20
0.0000
 30
0.0000
 40
0.3048
 41
0.3048
 70
0
  0
VERTEX
  8
1
 10
24.1300
 20
2.5400
 30
0.0000
  0
VERTEX
  8
1
 10
26.3525
 20
4.7625
 30
0.0000
  0
SEQEND
  8
0
  0
POLYLINE
  8
1
 66
1
 10
0.0000
 20
0.0000
 30
0.0000
 40
0.1524
 41
0.1524
 70
0
  0
VERTEX
  8
1
 10
26.4064
 20
4.7086
 30
0.0000
 42
1.0000
  0
VERTEX
  8
1
 10
26.2986
 20
4.8164
 30
0.0000
  0
SEQEND
  8
0
  0
POLYLINE
  8
1
 66
1
 10
0.0000
 20
0.0000
 30
0.0000
 40
0.1524
 41
0.1524
 70
0
  0
VERTEX
  8
1
 10
24.0761
 20
2.5939
 30
0.0000
 42
1.0000
  0
VERTEX
  8
1
 10
24.1839
 20
2.4861
 30
0.0000
  0
SEQEND
  8
0
  0
POLYLINE
  8
1
 66
1
 10
0.0000
 20
0.0000
 30
0.0000
 40
0.3048
 41
0.3048
 70
0
  0
VERTEX
  8
1
 10
26.3525
 20
4.7625
 30
0.0000
  0
VERTEX
  8
1
 10
30.4800
 20
4.7625
 30
0.0000
  0
SEQEND
  8
0
  0
POLYLINE
  8
1
 66
1
 10
0.0000
 20
0.0000
 30
0.0000
 40
0.1524
 41
0.1524
 70
0
  0
VERTEX
  8
1
 10
30.4800
 20
4.6863
 30
0.0000
 42
1.0000
  0
VERTEX
  8
1
 10
30.4800
 20
4.8387
 30
0.0000
  0
SEQEND
  8
0
  0
POLYLINE
  8
1
 66
1
 10
0.0000
 20
0.0000
 30
0.0000
 40
0.1524
 41
0.1524
 70
0
  0
VERTEX
  8
1
 10
26.3525
 20
4.8387
 30
0.0000
 42
1.0000
  0
VERTEX
  8
1
 10
26.3525
 20
4.6863
 30
0.0000
  0
SEQEND
  8
0
  0
POLYLINE
  8
1
 66
1
 10
0.0000
 20
0.0000
 30
0.0000
 40
0.3048
 41
0.3048
 70
0
  0
VERTEX
  8
1
 10
30.4800
 20
4.7625
 30
0.0000
  0
VERTEX
  8
1
 10
35.5600
 20
9.8425
 30
0.0000
  0
SEQEND
  8
0
  0
POLYLINE
  8
1
 66
1
 10
0.0000
 20
0.0000
 30
0.0000
 40
0.1524
 41
0.1524
 70
0
  0
VERTEX
  8
1
 10
35.6139
 20
9.7886
 30
0.0000
 42
1.0000
  0
VERTEX
  8
1
 10
35.5061
 20
9.8964
 30
0.0000
  0
SEQEND
  8
0
  0
POLYLINE
  8
1
 66
1
 10
0.0000
 20
0.0000
 30
0.0000
 40
0.1524
 41
0.1524
 70
0
  0
VERTEX
  8
1
 10
30.4261
 20
4.8164
 30
0.0000
 42
1.0000
  0
VERTEX
  8
1
 10
30.5339
 20
4.7086
 30
0.0000
  0
SEQEND
  8
0
  0
POLYLINE
  8
1
 66
1
 10
0.0000
 20
0.0000
 30
0.0000
 40
0.3048
 41
0.3048
 70
0
  0
VERTEX
  8
1
 10
35.5600
 20
9.8425
 30
0.0000
  0
VERTEX
  8
1
 10
38.0400
 20
9.8425
 30
0.0000
  0
SEQEND
  8
0
  0
POLYLINE
  8
1
 66
1
 10
0.0000
 20
0.0000
 30
0.0000
 40
0.1524
 41
0.1524
 70
0
  0
VERTEX
  8
1
 10
38.0400
 20
9.7663
 30
0.0000
 42
1.0000
  0
VERTEX
  8
1
 10
38.0400
 20
9.9187
 30
0.0000
  0
SEQEND
  8
0
  0
POLYLINE
  8
1
 66
1
 10
0.0000
 20
0.0000
 30
0.0000
 40
0.1524
 41
0.1524
 70
0
  0
VERTEX
  8
1
 10
35.5600
 20
9.9187
 30
0.0000
 42
1.0000
  0
VERTEX
  8
1
 10
35.5600
 20
9.7663
 30
0.0000
  0
SEQEND
  8
0
  0
POLYLINE
  8
1
 66
1
 10
0.0000
 20
0.0000
 30
0.0000
 40
0.3048
 41
0.3048
 70
0
  0
VERTEX
  8
1
 10
29.2100
 20
2.5400
 30
0.0000
  0
VERTEX
  8
1
 10
35.8775
 20
9.2075
 30
0.0000
  0
SEQEND
  8
0
  0
POLYLINE
  8
1
 66
1
 10
0.0000
 20
0.0000
 30
0.0000
 40
0.1524
 41
0.1524
 70
0
  0
VERTEX
  8
1
 10
35.9314
 20
9.1536
 30
0.0000
 42
1.0000
  0
VERTEX
  8
1
 10
35.8236
 20
9.2614
 30
0.0000
  0
SEQEND
  8
0
  0
POLYLINE
  8
1
 66
1
 10
0.0000
 20
0.0000
 30
0.0000
 40
0.1524
 41
0.1524
 70
0
  0
VERTEX
  8
1
 10
29.1561
 20
2.5939
 30
0.0000
 42
1.0000
  0
VERTEX
  8
1
 10
29.2639
 20
2.4861
 30
0.0000
  0
SEQEND
  8
0
  0
POLYLINE
  8
1
 66
1
 10
0.0000
 20
0.0000
 30
0.0000
 40
0.3048
 41
0.3048
 70
0
  0
VERTEX
  8
1
 10
35.8775
 20
9.2075
 30
0.0000
  0
VERTEX
  8
1
 10
38.0400
 20
9.2075
 30
0.0000
  0
SEQEND
  8
0
  0
POLYLINE
  8
1
 66
1
 10
0.0000
 20
0.0000
 30
0.0000
 40
0.1524
 41
0.1524
 70
0
  0
VERTEX
  8
1
 10
38.0400
 20
9.1313
 30
0.0000
 42
1.0000
  0
VERTEX
  8
1
 10
38.0400
 20
9.2837
 30
0.0000
  0
SEQEND
  8
0
  0
POLYLINE
  8
1
 66
1
 10
0.0000
 20
0.0000
 30
0.0000
 40
0.1524
 41
0.1524
 70
0
  0
VERTEX
  8
1
 10
35.8775
 20
9.2837
 30
0.0000
 42
1.0000
  0
VERTEX
  8
1
 10
35.8775
 20
9.1313
 30
0.0000
  0
SEQEND
  8
0
  0
POLYLINE
  8
1
 66
1
 10
0.0000
 20
0.0000
 30
0.0000
 40
0.3048
 41
0.3048
 70
0
  0
VERTEX
  8
1
 10
34.2900
 20
2.5400
 30
0.0000
  0
VERTEX
  8
1
 10
34.2900
 20
6.0325
 30
0.0000
  0
SEQEND
  8
0
  0
POLYLINE
  8
1
 66
1
 10
0.0000
 20
0.0000
 30
0.0000
 40
0.1524
 41
0.1524
 70
0
  0
VERTEX
  8
1
 10
34.3662
 20
6.0325
 30
0.0000
 42
1.0000
  0
VERTEX
  8
1
 10
34.2138
 20
6.0325
 30
0.0000
  0
SEQEND
  8
0
  0
POLYLINE
  8
1
 66
1
 10
0.0000
 20
0.0000
 30
0.0000
 40
0.1524
 41
0.1524
 70
0
  0
VERTEX
  8
1
 10
34.2138
 20
2.5400
 30
0.0000
 42
1.0000
  0
VERTEX
  8
1
 10
34.3662
 20
2.5400
 30
0.0000
  0
SEQEND
  8
0
  0
POLYLINE
  8
1
 66
1
 10
0.0000
 20
0.0000
 30
0.0000
 40
0.3048
 41
0.3048
 70
0
  0
VERTEX
  8
1
 10
34.2900
 20
6.0325
 30
0.0000
  0
VERTEX
  8
1
 10
36.8300
 20
8.5725
 30
0.0000
  0
SEQEND
  8
0
  0
POLYLINE
  8
1
 66
1
 10
0.0000
 20
0.0000
 30
0.0000
 40
0.1524
 41
0.1524
 70
0
  0
VERTEX
  8
1
 10
36.8839
 20
8.5186
 30
0.0000
 42
1.0000
  0
VERTEX
  8
1
 10
36.7761
 20
8.6264
 30
0.0000
  0
SEQEND
  8
0
  0
POLYLINE
  8
1
 66
1
 10
0.0000
 20
0.0000
 30
0.0000
 40
0.1524
 41
0.1524
 70
0
  0
VERTEX
  8
1
 10
34.2361
 20
6.0864
 30
0.0000
 42
1.0000
  0
VERTEX
  8
1
 10
34.3439
 20
5.9786
 30
0.0000
  0
SEQEND
  8
0
  0
POLYLINE
  8
1
 66
1
 10
0.0000
 20
0.0000
 30
0.0000
 40
0.3048
 41
0.3048
 70
0
  0
VERTEX
  8
1
 10
36.8300
 20
8.5725
 30
0.0000
  0
VERTEX
  8
1
 10
38.0400
 20
8.5725
 30
0.0000
  0
SEQEND
  8
0
  0
POLYLINE
  8
1
 66
1
 10
0.0000
 20
0.0000
 30
0.0000
 40
0.1524
 41
0.1524
 70
0
  0
VERTEX
  8
1
 10
38.0400
 20
8.4963
 30
0.0000
 42
1.0000
  0
VERTEX
  8
1
 10
38.0400
 20
8.6487
 30
0.0000
  0
SEQEND
  8
0
  0
POLYLINE
  8
1
 66
1
 10
0.0000
 20
0.0000
 30
0.0000
 40
0.1524
 41
0.1524
 70
0
  0
VERTEX
  8
1
 10
36.8300
 20
8.6487
 30
0.0000
 42
1.0000
  0
VERTEX
  8
1
 10
36.8300
 20
8.4963
 30
0.0000
  0
SEQEND
  8
0
  0
POLYLINE
  8
1
 66
1
 10
0.0000
 20
0.0000
 30
0.0000
 40
0.3048
 41
0.3048
 70
0
  0
VERTEX
  8
1
 10
38.0400
 20
7.9375
 30
0.0000
  0
VERTEX
  8
1
 10
39.0525
 20
7.9375
 30
0.0000
  0
SEQEND
  8
0
  0
POLYLINE
  8
1
 66
1
 10
0.0000
 20
0.0000
 30
0.0000
 40
0.1524
 41
0.1524
 70
0
  0
VERTEX
  8
1
 10
39.0525
 20
7.8613
 30
0.0000
 42
1.0000
  0
VERTEX
  8
1
 10
39.0525
 20
8.0137
 30
0.0000
  0
SEQEND
  8
0
  0
POLYLINE
  8
1
 66
1
 10
0.0000
 20
0.0000
 30
0.0000
 40
0.1524
 41
0.1524
 70
0
  0
VERTEX
  8
1
 10
38.0400
 20
8.0137
 30
0.0000
 42
1.0000
  0
VERTEX
  8
1
 10
38.0400
 20
7.8613
 30
0.0000
  0
SEQEND
  8
0
  0
POLYLINE
  8
1
 66
1
 10
0.0000
 20
0.0000
 30
0.0000
 40
0.3048
 41
0.3048
 70
0
  0
VERTEX
  8
1
 10
39.0525
 20
7.9375
 30
0.0000
  0
VERTEX
  8
1
 10
39.3700
 20
7.6200
 30
0.0000
  0
SEQEND
  8
0
  0
POLYLINE
  8
1
 66
1
 10
0.0000
 20
0.0000
 30
0.0000
 40
0.1524
 41
0.1524
 70
0
  0
VERTEX
  8
1
 10
39.3161
 20
7.5661
 30
0.0000
 42
1.0000
  0
VERTEX
  8
1
 10
39.4239
 20
7.6739
 30
0.0000
  0
SEQEND
  8
0
  0
POLYLINE
  8
1
 66
1
 10
0.0000
 20
0.0000
 30
0.0000
 40
0.1524
 41
0.1524
 70
0
  0
VERTEX
  8
1
 10
39.1064
 20
7.9914
 30
0.0000
 42
1.0000
  0
VERTEX
  8
1
 10
38.9986
 20
7.8836
 30
0.0000
  0
SEQEND
  8
0
  0
POLYLINE
  8
1
 66
1
 10
0.0000
 20
0.0000
 30
0.0000
 40
0.3048
 41
0.3048
 70
0
  0
VERTEX
  8
1
 10
39.3700
 20
7.6200
 30
0.0000
  0
VERTEX
  8
1
 10
39.3700
 20
2.5400
 30
0.0000
  0
SEQEND
  8
0
  0
POLYLINE
  8
1
 66
1
 10
0.0000
 20
0.0000
 30
0.0000
 40
0.1524
 41
0.1524
 70
0
  0
VERTEX
  8
1
 10
39.2938
 20
2.5400
 30
0.0000
 42
1.0000
  0
VERTEX
  8
1
 10
39.4462
 20
2.5400
 30
0.0000
  0
SEQEND
  8
0
  0
POLYLINE
  8
1
 66
1
 10
0.0000
 20
0.0000
 30
0.0000
 40
0.1524
 41
0.1524
 70
0
  0
VERTEX
  8
1
 10
39.4462
 20
7.6200
 30
0.0000
 42
1.0000
  0
VERTEX
  8
1
 10
39.2938
 20
7.6200
 30
0.0000
  0
SEQEND
  8
0
  0
POLYLINE
  8
1
 66
1
 10
0.0000
 20
0.0000
 30
0.0000
 40
0.3048
 41
0.3048
 70
0
  0
VERTEX
  8
1
 10
43.2400
 20
12.3825
 30
0.0000
  0
VERTEX
  8
1
 10
46.6725
 20
12.3825
 30
0.0000
  0
SEQEND
  8
0
  0
POLYLINE
  8
1
 66
1
 10
0.0000
 20
0.0000
 30
0.0000
 40
0.1524
 41
0.1524
 70
0
  0
VERTEX
  8
1
 10
46.6725
 20
12.3063
 30
0.0000
 42
1.0000
  0
VERTEX
  8
1
 10
46.6725
 20
12.4587
 30
0.0000
  0
SEQEND
  8
0
  0
POLYLINE
  8
1
 66
1
 10
0.0000
 20
0.0000
 30
0.0000
 40
0.1524
 41
0.1524
 70
0
  0
VERTEX
  8
1
 10
43.2400
 20
12.4587
 30
0.0000
 42
1.0000
  0
VERTEX
  8
1
 10
43.2400
 20
12.3063
 30
0.0000
  0
SEQEND
  8
0
  0
POLYLINE
  8
1
 66
1
 10
0.0000
 20
0.0000
 30
0.0000
 40
0.3048
 41
0.3048
 70
0
  0
VERTEX
  8
1
 10
46.6725
 20
12.3825
 30
0.0000
  0
VERTEX
  8
1
 10
51.1175
 20
7.9375
 30
0.0000
  0
SEQEND
  8
0
  0
POLYLINE
  8
1
 66
1
 10
0.0000
 20
0.0000
 30
0.0000
 40
0.1524
 41
0.1524
 70
0
  0
VERTEX
  8
1
 10
51.0636
 20
7.8836
 30
0.0000
 42
1.0000
  0
VERTEX
  8
1
 10
51.1714
 20
7.9914
 30
0.0000
  0
SEQEND
  8
0
  0
POLYLINE
  8
1
 66
1
 10
0.0000
 20
0.0000
 30
0.0000
 40
0.1524
 41
0.1524
 70
0
  0
VERTEX
  8
1
 10
46.7264
 20
12.4364
 30
0.0000
 42
1.0000
  0
VERTEX
  8
1
 10
46.6186
 20
12.3286
 30
0.0000
  0
SEQEND
  8
0
  0
POLYLINE
  8
1
 66
1
 10
0.0000
 20
0.0000
 30
0.0000
 40
0.3048
 41
0.3048
 70
0
  0
VERTEX
  8
1
 10
51.1175
 20
7.9375
 30
0.0000
  0
VERTEX
  8
1
 10
66.3575
 20
7.9375
 30
0.0000
  0
SEQEND
  8
0
  0
POLYLINE
  8
1
 66
1
 10
0.0000
 20
0.0000
 30
0.0000
 40
0.1524
 41
0.1524
 70
0
  0
VERTEX
  8
1
 10
66.3575
 20
7.8613
 30
0.0000
 42
1.0000
  0
VERTEX
  8
1
 10
66.3575
 20
8.0137
 30
0.0000
  0
SEQEND
  8
0
  0
POLYLINE
  8
1
 66
1
 10
0.0000
 20
0.0000
 30
0.0000
 40
0.1524
 41
0.1524
 70
0
  0
VERTEX
  8
1
 10
51.1175
 20
8.0137
 30
0.0000
 42
1.0000
  0
VERTEX
  8
1
 10
51.1175
 20
7.8613
 30
0.0000
  0
SEQEND
  8
0
  0
POLYLINE
  8
1
 66
1
 10
0.0000
 20
0.0000
 30
0.0000
 40
0.3048
 41
0.3048
 70
0
  0
VERTEX
  8
1
 10
66.3575
 20
7.9375
 30
0.0000
  0
VERTEX
  8
1
 10
68.8975
 20
5.3975
 30
0.0000
  0
SEQEND
  8
0
  0
POLYLINE
  8
1
 66
1
 10
0.0000
 20
0.0000
 30
0.0000
 40
0.1524
 41
0.1524
 70
0
  0
VERTEX
  8
1
 10
68.8436
 20
5.3436
 30
0.0000
 42
1.0000
  0
VERTEX
  8
1
 10
68.9514
 20
5.4514
 30
0.0000
  0
SEQEND
  8
0
  0
POLYLINE
  8
1
 66
1
 10
0.0000
 20
0.0000
 30
0.0000
 40
0.1524
 41
0.1524
 70
0
  0
VERTEX
  8
1
 10
66.4114
 20
7.9914
 30
0.0000
 42
1.0000
  0
VERTEX
  8
1
 10
66.3036
 20
7.8836
 30
0.0000
  0
SEQEND
  8
0
  0
POLYLINE
  8
1
 66
1
 10
0.0000
 20
0.0000
 30
0.0000
 40
0.3048
 41
0.3048
 70
0
  0
VERTEX
  8
1
 10
68.8975
 20
5.3975
 30
0.0000
  0
VERTEX
  8
1
 10
77.1525
 20
5.3975
 30
0.0000
  0
SEQEND
  8
0
  0
POLYLINE
  8
1
 66
1
 10
0.0000
 20
0.0000
 30
0.0000
 40
0.1524
 41
0.1524
 70
0
  0
VERTEX
  8
1
 10
77.1525
 20
5.3213
 30
0.0000
 42
1.0000
  0
VERTEX
  8
1
 10
77.1525
 20
5.4737
 30
0.0000
  0
SEQEND
  8
0
  0
POLYLINE
  8
1
 66
1
 10
0.0000
 20
0.0000
 30
0.0000
 40
0.1524
 41
0.1524
 70
0
  0
VERTEX
  8
1
 10
68.8975
 20
5.4737
 30
0.0000
 42
1.0000
  0
VERTEX
  8
1
 10
68.8975
 20
5.3213
 30
0.0000
  0
SEQEND
  8
0
  0
POLYLINE
  8
1
 66
1
 10
0.0000
 20
0.0000
 30
0.0000
 40
0.3048
 41
0.3048
 70
0
  0
VERTEX
  8
1
 10
77.1525
 20
5.3975
 30
0.0000
  0
VERTEX
  8
1
 10
80.0100
 20
2.5400
 30
0.0000
  0
SEQEND
  8
0
  0
POLYLINE
  8
1
 66
1
 10
0.0000
 20
0.0000
 30
0.0000
 40
0.1524
 41
0.1524
 70
0
  0
VERTEX
  8
1
 10
79.9561
 20
2.4861
 30
0.0000
 42
1.0000
  0
VERTEX
  8
1
 10
80.0639
 20
2.5939
 30
0.0000
  0
SEQEND
  8
0
  0
POLYLINE
  8
1
 66
1
 10
0.0000
 20
0.0000
 30
0.0000
 40
0.1524
 41
0.1524
 70
0
  0
VERTEX
  8
1
 10
77.2064
 20
5.4514
 30
0.0000
 42
1.0000
  0
VERTEX
  8
1
 10
77.0986
 20
5.3436
 30
0.0000
  0
SEQEND
  8
0
  0
POLYLINE
  8
1
 66
1
 10
0.0000
 20
0.0000
 30
0.0000
 40
0.3048
 41
0.3048
 70
0
  0
VERTEX
  8
1
 10
74.9300
 20
2.5400
 30
0.0000
  0
VERTEX
  8
1
 10
72.7075
 20
4.7625
 30
0.0000
  0
SEQEND
  8
0
  0
POLYLINE
  8
1
 66
1
 10
0.0000
 20
0.0000
 30
0.0000
 40
0.1524
 41
0.1524
 70
0
  0
VERTEX
  8
1
 10
72.7614
 20
4.8164
 30
0.0000
 42
1.0000
  0
VERTEX
  8
1
 10
72.6536
 20
4.7086
 30
0.0000
  0
SEQEND
  8
0
  0
POLYLINE
  8
1
 66
1
 10
0.0000
 20
0.0000
 30
0.0000
 40
0.1524
 41
0.1524
 70
0
  0
VERTEX
  8
1
 10
74.8761
 20
2.4861
 30
0.0000
 42
1.0000
  0
VERTEX
  8
1
 10
74.9839
 20
2.5939
 30
0.0000
  0
SEQEND
  8
0
  0
POLYLINE
  8
1
 66
1
 10
0.0000
 20
0.0000
 30
0.0000
 40
0.3048
 41
0.3048
 70
0
  0
VERTEX
  8
1
 10
72.7075
 20
4.7625
 30
0.0000
  0
VERTEX
  8
1
 10
68.5800
 20
4.7625
 30
0.0000
  0
SEQEND
  8
0
  0
POLYLINE
  8
1
 66
1
 10
0.0000
 20
0.0000
 30
0.0000
 40
0.1524
 41
0.1524
 70
0
  0
VERTEX
  8
1
 10
68.5800
 20
4.8387
 30
0.0000
 42
1.0000
  0
VERTEX
  8
1
 10
68.5800
 20
4.6863
 30
0.0000
  0
SEQEND
  8
0
  0
POLYLINE
  8
1
 66
1
 10
0.0000
 20
0.0000
 30
0.0000
 40
0.1524
 41
0.1524
 70
0
  0
VERTEX
  8
1
 10
72.7075
 20
4.6863
 30
0.0000
 42
1.0000
  0
VERTEX
  8
1
 10
72.7075
 20
4.8387
 30
0.0000
  0
SEQEND
  8
0
  0
POLYLINE
  8
1
 66
1
 10
0.0000
 20
0.0000
 30
0.0000
 40
0.3048
 41
0.3048
 70
0
  0
VERTEX
  8
1
 10
68.5800
 20
4.7625
 30
0.0000
  0
VERTEX
  8
1
 10
66.0400
 20
7.3025
 30
0.0000
  0
SEQEND
  8
0
  0
POLYLINE
  8
1
 66
1
 10
0.0000
 20
0.0000
 30
0.0000
 40
0.1524
 41
0.1524
 70
0
  0
VERTEX
  8
1
 10
66.0939
 20
7.3564
 30
0.0000
 42
1.0000
  0
VERTEX
  8
1
 10
65.9861
 20
7.2486
 30
0.0000
  0
SEQEND
  8
0
  0
POLYLINE
  8
1
 66
1
 10
0.0000
 20
0.0000
 30
0.0000
 40
0.1524
 41
0.1524
 70
0
  0
VERTEX
  8
1
 10
68.5261
 20
4.7086
 30
0.0000
 42
1.0000
  0
VERTEX
  8
1
 10
68.6339
 20
4.8164
 30
0.0000
  0
SEQEND
  8
0
  0
POLYLINE
  8
1
 66
1
 10
0.0000
 20
0.0000
 30
0.0000
 40
0.3048
 41
0.3048
 70
0
  0
VERTEX
  8
1
 10
66.0400
 20
7.3025
 30
0.0000
  0
VERTEX
  8
1
 10
50.8000
 20
7.3025
 30
0.0000
  0
SEQEND
  8
0
  0
POLYLINE
  8
1
 66
1
 10
0.0000
 20
0.0000
 30
0.0000
 40
0.1524
 41
0.1524
 70
0
  0
VERTEX
  8
1
 10
50.8000
 20
7.3787
 30
0.0000
 42
1.0000
  0
VERTEX
  8
1
 10
50.8000
 20
7.2263
 30
0.0000
  0
SEQEND
  8
0
  0
POLYLINE
  8
1
 66
1
 10
0.0000
 20
0.0000
 30
0.0000
 40
0.1524
 41
0.1524
 70
0
  0
VERTEX
  8
1
 10
66.0400
 20
7.2263
 30
0.0000
 42
1.0000
  0
VERTEX
  8
1
 10
66.0400
 20
7.3787
 30
0.0000
  0
SEQEND
  8
0
  0
POLYLINE
  8
1
 66
1
 10
0.0000
 20
0.0000
 30
0.0000
 40
0.3048
 41
0.3048
 70
0
  0
VERTEX
  8
1
 10
50.8000
 20
7.3025
 30
0.0000
  0
VERTEX
  8
1
 10
46.3550
 20
11.7475
 30
0.0000
  0
SEQEND
  8
0
  0
POLYLINE
  8
1
 66
1
 10
0.0000
 20
0.0000
 30
0.0000
 40
0.1524
 41
0.1524
 70
0
  0
VERTEX
  8
1
 10
46.4089
 20
11.8014
 30
0.0000
 42
1.0000
  0
VERTEX
  8
1
 10
46.3011
 20
11.6936
 30
0.0000
  0
SEQEND
  8
0
  0
POLYLINE
  8
1
 66
1
 10
0.0000
 20
0.0000
 30
0.0000
 40
0.1524
 41
0.1524
 70
0
  0
VERTEX
  8
1
 10
50.7461
 20
7.2486
 30
0.0000
 42
1.0000
  0
VERTEX
  8
1
 10
50.8539
 20
7.3564
 30
0.0000
  0
SEQEND
  8
0
  0
POLYLINE
  8
1
 66
1
 10
0.0000
 20
0.0000
 30
0.0000
 40
0.3048
 41
0.3048
 70
0
  0
VERTEX
  8
1
 10
46.3550
 20
11.7475
 30
0.0000
  0
VERTEX
  8
1
 10
43.2400
 20
11.7475
 30
0.0000
  0
SEQEND
  8
0
  0
POLYLINE
  8
1
 66
1
 10
0.0000
 20
0.0000
 30
0.0000
 40
0.1524
 41
0.1524
 70
0
  0
VERTEX
  8
1
 10
43.2400
 20
11.8237
 30
0.0000
 42
1.0000
  0
VERTEX
  8
1
 10
43.2400
 20
11.6713
 30
0.0000
  0
SEQEND
  8
0
  0
POLYLINE
  8
1
 66
1
 10
0.0000
 20
0.0000
 30
0.0000
 40
0.1524
 41
0.1524
 70
0
  0
VERTEX
  8
1
 10
46.3550
 20
11.6713
 30
0.0000
 42
1.0000
  0
VERTEX
  8
1
 10
46.3550
 20
11.8237
 30
0.0000
  0
SEQEND
  8
0
  0
POLYLINE
  8
1
 66
1
 10
0.0000
 20
0.0000
 30
0.0000
 40
0.3048
 41
0.3048
 70
0
  0
VERTEX
  8
1
 10
43.2400
 20
11.1125
 30
0.0000
  0
VERTEX
  8
1
 10
46.0375
 20
11.1125
 30
0.0000
  0
SEQEND
  8
0
  0
POLYLINE
  8
1
 66
1
 10
0.0000
 20
0.0000
 30
0.0000
 40
0.1524
 41
0.1524
 70
0
  0
VERTEX
  8
1
 10
46.0375
 20
11.0363
 30
0.0000
 42
1.0000
  0
VERTEX
  8
1
 10
46.0375
 20
11.1887
 30
0.0000
  0
SEQEND
  8
0
  0
POLYLINE
  8
1
 66
1
 10
0.0000
 20
0.0000
 30
0.0000
 40
0.1524
 41
0.1524
 70
0
  0
VERTEX
  8
1
 10
43.2400
 20
11.1887
 30
0.0000
 42
1.0000
  0
VERTEX
  8
1
 10
43.2400
 20
11.0363
 30
0.0000
  0
SEQEND
  8
0
  0
POLYLINE
  8
1
 66
1
 10
0.0000
 20
0.0000
 30
0.0000
 40
0.3048
 41
0.3048
 70
0
  0
VERTEX
  8
1
 10
46.0375
 20
11.1125
 30
0.0000
  0
VERTEX
  8
1
 10
50.4825
 20
6.6675
 30
0.0000
  0
SEQEND
  8
0
  0
POLYLINE
  8
1
 66
1
 10
0.0000
 20
0.0000
 30
0.0000
 40
0.1524
 41
0.1524
 70
0
  0
VERTEX
  8
1
 10
50.4286
 20
6.6136
 30
0.0000
 42
1.0000
  0
VERTEX
  8
1
 10
50.5364
 20
6.7214
 30
0.0000
  0
SEQEND
  8
0
  0
POLYLINE
  8
1
 66
1
 10
0.0000
 20
0.0000
 30
0.0000
 40
0.1524
 41
0.1524
 70
0
  0
VERTEX
  8
1
 10
46.0914
 20
11.1664
 30
0.0000
 42
1.0000
  0
VERTEX
  8
1
 10
45.9836
 20
11.0586
 30
0.0000
  0
SEQEND
  8
0
  0
POLYLINE
  8
1
 66
1
 10
0.0000
 20
0.0000
 30
0.0000
 40
0.3048
 41
0.3048
 70
0
  0
VERTEX
  8
1
 10
50.4825
 20
6.6675
 30
0.0000
  0
VERTEX
  8
1
 10
65.7225
 20
6.6675
 30
0.0000
  0
SEQEND
  8
0
  0
POLYLINE
  8
1
 66
1
 10
0.0000
 20
0.0000
 30
0.0000
 40
0.1524
 41
0.1524
 70
0
  0
VERTEX
  8
1
 10
65.7225
 20
6.5913
 30
0.0000
 42
1.0000
  0
VERTEX
  8
1
 10
65.7225
 20
6.7437
 30
0.0000
  0
SEQEND
  8
0
  0
POLYLINE
  8
1
 66
1
 10
0.0000
 20
0.0000
 30
0.0000
 40
0.1524
 41
0.1524
 70
0
  0
VERTEX
  8
1
 10
50.4825
 20
6.7437
 30
0.0000
 42
1.0000
  0
VERTEX
  8
1
 10
50.4825
 20
6.5913
 30
0.0000
  0
SEQEND
  8
0
  0
POLYLINE
  8
1
 66
1
 10
0.0000
 20
0.0000
 30
0.0000
 40
0.3048
 41
0.3048
 70
0
  0
VERTEX
  8
1
 10
65.7225
 20
6.6675
 30
0.0000
  0
VERTEX
  8
1
 10
69.8500
 20
2.5400
 30
0.0000
  0
SEQEND
  8
0
  0
POLYLINE
  8
1
 66
1
 10
0.0000
 20
0.0000
 30
0.0000
 40
0.1524
 41
0.1524
 70
0
  0
VERTEX
  8
1
 10
69.7961
 20
2.4861
 30
0.0000
 42
1.0000
  0
VERTEX
  8
1
 10
69.9039
 20
2.5939
 30
0.0000
  0
SEQEND
  8
0
  0
POLYLINE
  8
1
 66
1
 10
0.0000
 20
0.0000
 30
0.0000
 40
0.1524
 41
0.1524
 70
0
  0
VERTEX
  8
1
 10
65.7764
 20
6.7214
 30
0.0000
 42
1.0000
  0
VERTEX
  8
1
 10
65.6686
 20
6.6136
 30
0.0000
  0
SEQEND
  8
0
  0
POLYLINE
  8
1
 66
1
 10
0.0000
 20
0.0000
 30
0.0000
 40
0.3048
 41
0.3048
 70
0
  0
VERTEX
  8
1
 10
43.2400
 20
10.4775
 30
0.0000
  0
VERTEX
  8
1
 10
45.7200
 20
10.4775
 30
0.0000
  0
SEQEND
  8
0
  0
POLYLINE
  8
1
 66
1
 10
0.0000
 20
0.0000
 30
0.0000
 40
0.1524
 41
0.1524
 70
0
  0
VERTEX
  8
1
 10
45.7200
 20
10.4013
 30
0.0000
 42
1.0000
  0
VERTEX
  8
1
 10
45.7200
 20
10.5537
 30
0.0000
  0
SEQEND
  8
0
  0
POLYLINE
  8
1
 66
1
 10
0.0000
 20
0.0000
 30
0.0000
 40
0.1524
 41
0.1524
 70
0
  0
VERTEX
  8
1
 10
43.2400
 20
10.5537
 30
0.0000
 42
1.0000
  0
VERTEX
  8
1
 10
43.2400
 20
10.4013
 30
0.0000
  0
SEQEND
  8
0
  0
POLYLINE
  8
1
 66
1
 10
0.0000
 20
0.0000
 30
0.0000
 40
0.3048
 41
0.3048
 70
0
  0
VERTEX
  8
1
 10
45.7200
 20
10.4775
 30
0.0000
  0
VERTEX
  8
1
 10
50.1650
 20
6.0325
 30
0.0000
  0
SEQEND
  8
0
  0
POLYLINE
  8
1
 66
1
 10
0.0000
 20
0.0000
 30
0.0000
 40
0.1524
 41
0.1524
 70
0
  0
VERTEX
  8
1
 10
50.1111
 20
5.9786
 30
0.0000
 42
1.0000
  0
VERTEX
  8
1
 10
50.2189
 20
6.0864
 30
0.0000
  0
SEQEND
  8
0
  0
POLYLINE
  8
1
 66
1
 10
0.0000
 20
0.0000
 30
0.0000
 40
0.1524
 41
0.1524
 70
0
  0
VERTEX
  8
1
 10
45.7739
 20
10.5314
 30
0.0000
 42
1.0000
  0
VERTEX
  8
1
 10
45.6661
 20
10.4236
 30
0.0000
  0
SEQEND
  8
0
  0
POLYLINE
  8
1
 66
1
 10
0.0000
 20
0.0000
 30
0.0000
 40
0.3048
 41
0.3048
 70
0
  0
VERTEX
  8
1
 10
50.1650
 20
6.0325
 30
0.0000
  0
VERTEX
  8
1
 10
61.2775
 20
6.0325
 30
0.0000
  0
SEQEND
  8
0
  0
POLYLINE
  8
1
 66
1
 10
0.0000
 20
0.0000
 30
0.0000
 40
0.1524
 41
0.1524
 70
0
  0
VERTEX
  8
1
 10
61.2775
 20
5.9563
 30
0.0000
 42
1.0000
  0
VERTEX
  8
1
 10
61.2775
 20
6.1087
 30
0.0000
  0
SEQEND
  8
0
  0
POLYLINE
  8
1
 66
1
 10
0.0000
 20
0.0000
 30
0.0000
 40
0.1524
 41
0.1524
 70
0
  0
VERTEX
  8
1
 10
50.1650
 20
6.1087
 30
0.0000
 42
1.0000
  0
VERTEX
  8
1
 10
50.1650
 20
5.9563
 30
0.0000
  0
SEQEND
  8
0
  0
POLYLINE
  8
1
 66
1
 10
0.0000
 20
0.0000
 30
0.0000
 40
0.3048
 41
0.3048
 70
0
  0
VERTEX
  8
1
 10
61.2775
 20
6.0325
 30
0.0000
  0
VERTEX
  8
1
 10
64.7700
 20
2.5400
 30
0.0000
  0
SEQEND
  8
0
  0
POLYLINE
  8
1
 66
1
 10
0.0000
 20
0.0000
 30
0.0000
 40
0.1524
 41
0.1524
 70
0
  0
VERTEX
  8
1
 10
64.7161
 20
2.4861
 30
0.0000
 42
1.0000
  0
VERTEX
  8
1
 10
64.8239
 20
2.5939
 30
0.0000
  0
SEQEND
  8
0
  0
POLYLINE
  8
1
 66
1
 10
0.0000
 20
0.0000
 30
0.0000
 40
0.1524
 41
0.1524
 70
0
  0
VERTEX
  8
1
 10
61.3314
 20
6.0864
 30
0.0000
 42
1.0000
  0
VERTEX
  8
1
 10
61.2236
 20
5.9786
 30
0.0000
  0
SEQEND
  8
0
  0
POLYLINE
  8
1
 66
1
 10
0.0000
 20
0.0000
 30
0.0000
 40
0.3048
 41
0.3048
 70
0
  0
VERTEX
  8
1
 10
43.2400
 20
9.8425
 30
0.0000
  0
VERTEX
  8
1
 10
45.4025
 20
9.8425
 30
0.0000
  0
SEQEND
  8
0
  0
POLYLINE
  8
1
 66
1
 10
0.0000
 20
0.0000
 30
0.0000
 40
0.1524
 41
0.1524
 70
0
  0
VERTEX
  8
1
 10
45.4025
 20
9.7663
 30
0.0000
 42
1.0000
  0
VERTEX
  8
1
 10
45.4025
 20
9.9187
 30
0.0000
  0
SEQEND
  8
0
  0
POLYLINE
  8
1
 66
1
 10
0.0000
 20
0.0000
 30
0.0000
 40
0.1524
 41
0.1524
 70
0
  0
VERTEX
  8
1
 10
43.2400
 20
9.9187
 30
0.0000
 42
1.0000
  0
VERTEX
  8
1
 10
43.2400
 20
9.7663
 30
0.0000
  0
SEQEND
  8
0
  0
POLYLINE
  8
1
 66
1
 10
0.0000
 20
0.0000
 30
0.0000
 40
0.3048
 41
0.3048
 70
0
  0
VERTEX
  8
1
 10
45.4025
 20
9.8425
 30
0.0000
  0
VERTEX
  8
1
 10
49.8475
 20
5.3975
 30
0.0000
  0
SEQEND
  8
0
  0
POLYLINE
  8
1
 66
1
 10
0.0000
 20
0.0000
 30
0.0000
 40
0.1524
 41
0.1524
 70
0
  0
VERTEX
  8
1
 10
49.7936
 20
5.3436
 30
0.0000
 42
1.0000
  0
VERTEX
  8
1
 10
49.9014
 20
5.4514
 30
0.0000
  0
SEQEND
  8
0
  0
POLYLINE
  8
1
 66
1
 10
0.0000
 20
0.0000
 30
0.0000
 40
0.1524
 41
0.1524
 70
0
  0
VERTEX
  8
1
 10
45.4564
 20
9.8964
 30
0.0000
 42
1.0000
  0
VERTEX
  8
1
 10
45.3486
 20
9.7886
 30
0.0000
  0
SEQEND
  8
0
  0
POLYLINE
  8
1
 66
1
 10
0.0000
 20
0.0000
 30
0.0000
 40
0.3048
 41
0.3048
 70
0
  0
VERTEX
  8
1
 10
49.8475
 20
5.3975
 30
0.0000
  0
VERTEX
  8
1
 10
56.8325
 20
5.3975
 30
0.0000
  0
SEQEND
  8
0
  0
POLYLINE
  8
1
 66
1
 10
0.0000
 20
0.0000
 30
0.0000
 40
0.1524
 41
0.1524
 70
0
  0
VERTEX
  8
1
 10
56.8325
 20
5.3213
 30
0.0000
 42
1.0000
  0
VERTEX
  8
1
 10
56.8325
 20
5.4737
 30
0.0000
  0
SEQEND
  8
0
  0
POLYLINE
  8
1
 66
1
 10
0.0000
 20
0.0000
 30
0.0000
 40
0.1524
 41
0.1524
 70
0
  0
VERTEX
  8
1
 10
49.8475
 20
5.4737
 30
0.0000
 42
1.0000
  0
VERTEX
  8
1
 10
49.8475
 20
5.3213
 30
0.0000
  0
SEQEND
  8
0
  0
POLYLINE
  8
1
 66
1
 10
0.0000
 20
0.0000
 30
0.0000
 40
0.3048
 41
0.3048
 70
0
  0
VERTEX
  8
1
 10
56.8325
 20
5.3975
 30
0.0000
  0
VERTEX
  8
1
 10
59.6900
 20
2.5400
 30
0.0000
  0
SEQEND
  8
0
  0
POLYLINE
  8
1
 66
1
 10
0.0000
 20
0.0000
 30
0.0000
 40
0.1524
 41
0.1524
 70
0
  0
VERTEX
  8
1
 10
59.6361
 20
2.4861
 30
0.0000
 42
1.0000
  0
VERTEX
  8
1
 10
59.7439
 20
2.5939
 30
0.0000
  0
SEQEND
  8
0
  0
POLYLINE
  8
1
 66
1
 10
0.0000
 20
0.0000
 30
0.0000
 40
0.1524
 41
0.1524
 70
0
  0
VERTEX
  8
1
 10
56.8864
 20
5.4514
 30
0.0000
 42
1.0000
  0
VERTEX
  8
1
 10
56.7786
 20
5.3436
 30
0.0000
  0
SEQEND
  8
0
  0
POLYLINE
  8
1
 66
1
 10
0.0000
 20
0.0000
 30
0.0000
 40
0.3048
 41
0.3048
 70
0
  0
VERTEX
  8
1
 10
54.6100
 20
2.5400
 30
0.0000
  0
VERTEX
  8
1
 10
52.3875
 20
4.7625
 30
0.0000
  0
SEQEND
  8
0
  0
POLYLINE
  8
1
 66
1
 10
0.0000
 20
0.0000
 30
0.0000
 40
0.1524
 41
0.1524
 70
0
  0
VERTEX
  8
1
 10
52.4414
 20
4.8164
 30
0.0000
 42
1.0000
  0
VERTEX
  8
1
 10
52.3336
 20
4.7086
 30
0.0000
  0
SEQEND
  8
0
  0
POLYLINE
  8
1
 66
1
 10
0.0000
 20
0.0000
 30
0.0000
 40
0.1524
 41
0.1524
 70
0
  0
VERTEX
  8
1
 10
54.5561
 20
2.4861
 30
0.0000
 42
1.0000
  0
VERTEX
  8
1
 10
54.6639
 20
2.5939
 30
0.0000
  0
SEQEND
  8
0
  0
POLYLINE
  8
1
 66
1
 10
0.0000
 20
0.0000
 30
0.0000
 40
0.3048
 41
0.3048
 70
0
  0
VERTEX
  8
1
 10
52.3875
 20
4.7625
 30
0.0000
  0
VERTEX
  8
1
 10
49.5300
 20
4.7625
 30
0.0000
  0
SEQEND
  8
0
  0
POLYLINE
  8
1
 66
1
 10
0.0000
 20
0.0000
 30
0.0000
 40
0.1524
 41
0.1524
 70
0
  0
VERTEX
  8
1
 10
49.5300
 20
4.8387
 30
0.0000
 42
1.0000
  0
VERTEX
  8
1
 10
49.5300
 20
4.6863
 30
0.0000
  0
SEQEND
  8
0
  0
POLYLINE
  8
1
 66
1
 10
0.0000
 20
0.0000
 30
0.0000
 40
0.1524
 41
0.1524
 70
0
  0
VERTEX
  8
1
 10
52.3875
 20
4.6863
 30
0.0000
 42
1.0000
  0
VERTEX
  8
1
 10
52.3875
 20
4.8387
 30
0.0000
  0
SEQEND
  8
0
  0
POLYLINE
  8
1
 66
1
 10
0.0000
 20
0.0000
 30
0.0000
 40
0.3048
 41
0.3048
 70
0
  0
VERTEX
  8
1
 10
49.5300
 20
4.7625
 30
0.0000
  0
VERTEX
  8
1
 10
45.0850
 20
9.2075
 30
0.0000
  0
SEQEND
  8
0
  0
POLYLINE
  8
1
 66
1
 10
0.0000
 20
0.0000
 30
0.0000
 40
0.1524
 41
0.1524
 70
0
  0
VERTEX
  8
1
 10
45.1389
 20
9.2614
 30
0.0000
 42
1.0000
  0
VERTEX
  8
1
 10
45.0311
 20
9.1536
 30
0.0000
  0
SEQEND
  8
0
  0
POLYLINE
  8
1
 66
1
 10
0.0000
 20
0.0000
 30
0.0000
 40
0.1524
 41
0.1524
 70
0
  0
VERTEX
  8
1
 10
49.4761
 20
4.7086
 30
0.0000
 42
1.0000
  0
VERTEX
  8
1
 10
49.5839
 20
4.8164
 30
0.0000
  0
SEQEND
  8
0
  0
POLYLINE
  8
1
 66
1
 10
0.0000
 20
0.0000
 30
0.0000
 40
0.3048
 41
0.3048
 70
0
  0
VERTEX
  8
1
 10
45.0850
 20
9.2075
 30
0.0000
  0
VERTEX
  8
1
 10
43.2400
 20
9.2075
 30
0.0000
  0
SEQEND
  8
0
  0
POLYLINE
  8
1
 66
1
 10
0.0000
 20
0.0000
 30
0.0000
 40
0.1524
 41
0.1524
 70
0
  0
VERTEX
  8
1
 10
43.2400
 20
9.2837
 30
0.0000
 42
1.0000
  0
VERTEX
  8
1
 10
43.2400
 20
9.1313
 30
0.0000
  0
SEQEND
  8
0
  0
POLYLINE
  8
1
 66
1
 10
0.0000
 20
0.0000
 30
0.0000
 40
0.1524
 41
0.1524
 70
0
  0
VERTEX
  8
1
 10
45.0850
 20
9.1313
 30
0.0000
 42
1.0000
  0
VERTEX
  8
1
 10
45.0850
 20
9.2837
 30
0.0000
  0
SEQEND
  8
0
  0
POLYLINE
  8
1
 66
1
 10
0.0000
 20
0.0000
 30
0.0000
 40
0.3048
 41
0.3048
 70
0
  0
VERTEX
  8
1
 10
43.2400
 20
8.5725
 30
0.0000
  0
VERTEX
  8
1
 10
44.7675
 20
8.5725
 30
0.0000
  0
SEQEND
  8
0
  0
POLYLINE
  8
1
 66
1
 10
0.0000
 20
0.0000
 30
0.0000
 40
0.1524
 41
0.1524
 70
0
  0
VERTEX
  8
1
 10
44.7675
 20
8.4963
 30
0.0000
 42
1.0000
  0
VERTEX
  8
1
 10
44.7675
 20
8.6487
 30
0.0000
  0
SEQEND
  8
0
  0
POLYLINE
  8
1
 66
1
 10
0.0000
 20
0.0000
 30
0.0000
 40
0.1524
 41
0.1524
 70
0
  0
VERTEX
  8
1
 10
43.2400
 20
8.6487
 30
0.0000
 42
1.0000
  0
VERTEX
  8
1
 10
43.2400
 20
8.4963
 30
0.0000
  0
SEQEND
  8
0
  0
POLYLINE
  8
1
 66
1
 10
0.0000
 20
0.0000
 30
0.0000
 40
0.3048
 41
0.3048
 70
0
  0
VERTEX
  8
1
 10
44.7675
 20
8.5725
 30
0.0000
  0
VERTEX
  8
1
 10
49.5300
 20
3.8100
 30
0.0000
  0
SEQEND
  8
0
  0
POLYLINE
  8
1
 66
1
 10
0.0000
 20
0.0000
 30
0.0000
 40
0.1524
 41
0.1524
 70
0
  0
VERTEX
  8
1
 10
49.4761
 20
3.7561
 30
0.0000
 42
1.0000
  0
VERTEX
  8
1
 10
49.5839
 20
3.8639
 30
0.0000
  0
SEQEND
  8
0
  0
POLYLINE
  8
1
 66
1
 10
0.0000
 20
0.0000
 30
0.0000
 40
0.1524
 41
0.1524
 70
0
  0
VERTEX
  8
1
 10
44.8214
 20
8.6264
 30
0.0000
 42
1.0000
  0
VERTEX
  8
1
 10
44.7136
 20
8.5186
 30
0.0000
  0
SEQEND
  8
0
  0
POLYLINE
  8
1
 66
1
 10
0.0000
 20
0.0000
 30
0.0000
 40
0.3048
 41
0.3048
 70
0
  0
VERTEX
  8
1
 10
49.5300
 20
3.8100
 30
0.0000
  0
VERTEX
  8
1
 10
49.5300
 20
2.5400
 30
0.0000
  0
SEQEND
  8
0
  0
POLYLINE
  8
1
 66
1
 10
0.0000
 20
0.0000
 30
0.0000
 40
0.1524
 41
0.1524
 70
0
  0
VERTEX
  8
1
 10
49.4538
 20
2.5400
 30
0.0000
 42
1.0000
  0
VERTEX
  8
1
 10
49.6062
 20
2.5400
 30
0.0000
  0
SEQEND
  8
0
  0
POLYLINE
  8
1
 66
1
 10
0.0000
 20
0.0000
 30
0.0000
 40
0.1524
 41
0.1524
 70
0
  0
VERTEX
  8
1
 10
49.6062
 20
3.8100
 30
0.0000
 42
1.0000
  0
VERTEX
  8
1
 10
49.4538
 20
3.8100
 30
0.0000
  0
SEQEND
  8
0
  0
POLYLINE
  8
1
 66
1
 10
0.0000
 20
0.0000
 30
0.0000
 40
0.3048
 41
0.3048
 70
0
  0
VERTEX
  8
1
 10
44.4500
 20
2.5400
 30
0.0000
  0
VERTEX
  8
1
 10
41.5925
 20
5.3975
 30
0.0000
  0
SEQEND
  8
0
  0
POLYLINE
  8
1
 66
1
 10
0.0000
 20
0.0000
 30
0.0000
 40
0.1524
 41
0.1524
 70
0
  0
VERTEX
  8
1
 10
41.6464
 20
5.4514
 30
0.0000
 42
1.0000
  0
VERTEX
  8
1
 10
41.5386
 20
5.3436
 30
0.0000
  0
SEQEND
  8
0
  0
POLYLINE
  8
1
 66
1
 10
0.0000
 20
0.0000
 30
0.0000
 40
0.1524
 41
0.1524
 70
0
  0
VERTEX
  8
1
 10
44.3961
 20
2.4861
 30
0.0000
 42
1.0000
  0
VERTEX
  8
1
 10
44.5039
 20
2.5939
 30
0.0000
  0
SEQEND
  8
0
  0
POLYLINE
  8
1
 66
1
 10
0.0000
 20
0.0000
 30
0.0000
 40
0.3048
 41
0.3048
 70
0
  0
VERTEX
  8
1
 10
41.5925
 20
5.3975
 30
0.0000
  0
VERTEX
  8
1
 10
41.5925
 20
7.6200
 30
0.0000
  0
SEQEND
  8
0
  0
POLYLINE
  8
1
 66
1
 10
0.0000
 20
0.0000
 30
0.0000
 40
0.1524
 41
0.1524
 70
0
  0
VERTEX
  8
1
 10
41.6687
 20
7.6200
 30
0.0000
 42
1.0000
  0
VERTEX
  8
1
 10
41.5163
 20
7.6200
 30
0.0000
  0
SEQEND
  8
0
  0
POLYLINE
  8
1
 66
1
 10
0.0000
 20
0.0000
 30
0.0000
 40
0.1524
 41
0.1524
 70
0
  0
VERTEX
  8
1
 10
41.5163
 20
5.3975
 30
0.0000
 42
1.0000
  0
VERTEX
  8
1
 10
41.6687
 20
5.3975
 30
0.0000
  0
SEQEND
  8
0
  0
POLYLINE
  8
1
 66
1
 10
0.0000
 20
0.0000
 30
0.0000
 40
0.3048
 41
0.3048
 70
0
  0
VERTEX
  8
1
 10
41.5925
 20
7.6200
 30
0.0000
  0
VERTEX
  8
1
 10
41.9100
 20
7.9375
 30
0.0000
  0
SEQEND
  8
0
  0
POLYLINE
  8
1
 66
1
 10
0.0000
 20
0.0000
 30
0.0000
 40
0.1524
 41
0.1524
 70
0
  0
VERTEX
  8
1
 10
41.9639
 20
7.8836
 30
0.0000
 42
1.0000
  0
VERTEX
  8
1
 10
41.8561
 20
7.9914
 30
0.0000
  0
SEQEND
  8
0
  0
POLYLINE
  8
1
 66
1
 10
0.0000
 20
0.0000
 30
0.0000
 40
0.1524
 41
0.1524
 70
0
  0
VERTEX
  8
1
 10
41.5386
 20
7.6739
 30
0.0000
 42
1.0000
  0
VERTEX
  8
1
 10
41.6464
 20
7.5661
 30
0.0000
  0
SEQEND
  8
0
  0
POLYLINE
  8
1
 66
1
 10
0.0000
 20
0.0000
 30
0.0000
 40
0.3048
 41
0.3048
 70
0
  0
VERTEX
  8
1
 10
41.9100
 20
7.9375
 30
0.0000
  0
VERTEX
  8
1
 10
43.2400
 20
7.9375
 30
0.0000
  0
SEQEND
  8
0
  0
POLYLINE
  8
1
 66
1
 10
0.0000
 20
0.0000
 30
0.0000
 40
0.1524
 41
0.1524
 70
0
  0
VERTEX
  8
1
 10
43.2400
 20
7.8613
 30
0.0000
 42
1.0000
  0
VERTEX
  8
1
 10
43.2400
 20
8.0137
 30
0.0000
  0
SEQEND
  8
0
  0
POLYLINE
  8
1
 66
1
 10
0.0000
 20
0.0000
 30
0.0000
 40
0.1524
 41
0.1524
 70
0
  0
VERTEX
  8
1
 10
41.9100
 20
8.0137
 30
0.0000
 42
1.0000
  0
VERTEX
  8
1
 10
41.9100
 20
7.8613
 30
0.0000
  0
SEQEND
  8
0
  0
POLYLINE
  8
1
 66
1
 10
0.0000
 20
0.0000
 30
0.0000
 40
0.4064
 41
0.4064
 70
0
  0
VERTEX
  8
1
 10
43.2400
 20
14.2875
 30
0.0000
  0
VERTEX
  8
1
 10
45.0850
 20
14.2875
 30
0.0000
  0
SEQEND
  8
0
  0
POLYLINE
  8
1
 66
1
 10
0.0000
 20
0.0000
 30
0.0000
 40
0.2032
 41
0.2032
 70
0
  0
VERTEX
  8
1
 10
45.0850
 20
14.1859
 30
0.0000
 42
1.0000
  0
VERTEX
  8
1
 10
45.0850
 20
14.3891
 30
0.0000
  0
SEQEND
  8
0
  0
POLYLINE
  8
1
 66
1
 10
0.0000
 20
0.0000
 30
0.0000
 40
0.2032
 41
0.2032
 70
0
  0
VERTEX
  8
1
 10
43.2400
 20
14.3891
 30
0.0000
 42
1.0000
  0
VERTEX
  8
1
 10
43.2400
 20
14.1859
 30
0.0000
  0
SEQEND
  8
0
  0
POLYLINE
  8
1
 66
1
 10
0.0000
 20
0.0000
 30
0.0000
 40
0.4064
 41
0.4064
 70
0
  0
VERTEX
  8
1
 10
45.0850
 20
14.2875
 30
0.0000
  0
VERTEX
  8
1
 10
45.7200
 20
14.9225
 30
0.0000
  0
SEQEND
  8
0
  0
POLYLINE
  8
1
 66
1
 10
0.0000
 20
0.0000
 30
0.0000
 40
0.2032
 41
0.2032
 70
0
  0
VERTEX
  8
1
 10
45.7918
 20
14.8507
 30
0.0000
 42
1.0000
  0
VERTEX
  8
1
 10
45.6482
 20
14.9943
 30
0.0000
  0
SEQEND
  8
0
  0
POLYLINE
  8
1
 66
1
 10
0.0000
 20
0.0000
 30
0.0000
 40
0.2032
 41
0.2032
 70
0
  0
VERTEX
  8
1
 10
45.0132
 20
14.3593
 30
0.0000
 42
1.0000
  0
VERTEX
  8
1
 10
45.1568
 20
14.2157
 30
0.0000
  0
SEQEND
  8
0
  0
POLYLINE
  8
1
 66
1
 10
0.0000
 20
0.0000
 30
0.0000
 40
0.4064
 41
0.4064
 70
0
  0
VERTEX
  8
1
 10
45.7200
 20
14.9225
 30
0.0000
  0
VERTEX
  8
1
 10
45.7200
 20
22.8600
 30
0.0000
  0
SEQEND
  8
0
  0
POLYLINE
  8
1
 66
1
 10
0.0000
 20
0.0000
 30
0.0000
 40
0.2032
 41
0.2032
 70
0
  0
VERTEX
  8
1
 10
45.8216
 20
22.8600
 30
0.0000
 42
1.0000
  0
VERTEX
  8
1
 10
45.6184
 20
22.8600
 30
0.0000
  0
SEQEND
  8
0
  0
POLYLINE
  8
1
 66
1
 10
0.0000
 20
0.0000
 30
0.0000
 40
0.2032
 41
0.2032
 70
0
  0
VERTEX
  8
1
 10
45.6184
 20
14.9225
 30
0.0000
 42
1.0000
  0
VERTEX
  8
1
 10
45.8216
 20
14.9225
 30
0.0000
  0
SEQEND
  8
0
  0
POLYLINE
  8
16
 66
1
 10
0.0000
 20
0.0000
 30
0.0000
 40
0.6096
 41
0.6096
 70
0
  0
VERTEX
  8
16
 10
2.5400
 20
10.7950
 30
0.0000
  0
VERTEX
  8
16
 10
1.2700
 20
9.5250
 30
0.0000
  0
SEQEND
  8
0
  0
POLYLINE
  8
16
 66
1
 10
0.0000
 20
0.0000
 30
0.0000
 40
0.3048
 41
0.3048
 70
0
  0
VERTEX
  8
16
 10
1.1622
 20
9.6328
 30
0.0000
 42
1.0000
  0
VERTEX
  8
16
 10
1.3778
 20
9.4172
 30
0.0000
  0
SEQEND
  8
0
  0
POLYLINE
  8
16
 66
1
 10
0.0000
 20
0.0000
 30
0.0000
 40
0.3048
 41
0.3048
 70
0
  0
VERTEX
  8
16
 10
2.6478
 20
10.6872
 30
0.0000
 42
1.0000
  0
VERTEX
  8
16
 10
2.4322
 20
10.9028
 30
0.0000
  0
SEQEND
  8
0
  0
POLYLINE
  8
16
 66
1
 10
0.0000
 20
0.0000
 30
0.0000
 40
0.6096
 41
0.6096
 70
0
  0
VERTEX
  8
16
 10
1.2700
 20
9.5250
 30
0.0000
  0
VERTEX
  8
16
 10
1.2700
 20
2.5400
 30
0.0000
  0
SEQEND
  8
0
  0
POLYLINE
  8
16
 66
1
 10
0.0000
 20
0.0000
 30
0.0000
 40
0.3048
 41
0.3048
 70
0
  0
VERTEX
  8
16
 10
1.1176
 20
2.5400
 30
0.0000
 42
1.0000
  0
VERTEX
  8
16
 10
1.4224
 20
2.5400
 30
0.0000
  0
SEQEND
  8
0
  0
POLYLINE
  8
16
 66
1
 10
0.0000
 20
0.0000
 30
0.0000
 40
0.3048
 41
0.3048
 70
0
  0
VERTEX
  8
16
 10
1.4224
 20
9.5250
 30
0.0000
 42
1.0000
  0
VERTEX
  8
16
 10
1.1176
 20
9.5250
 30
0.0000
  0
SEQEND
  8
0
  0
POLYLINE
  8
16
 66
1
 10
0.0000
 20
0.0000
 30
0.0000
 40
0.6096
 41
0.6096
 70
0
  0
VERTEX
  8
16
 10
1.2700
 20
2.5400
 30
0.0000
  0
VERTEX
  8
16
 10
1.2700
 20
1.9050
 30
0.0000
  0
SEQEND
  8
0
  0
POLYLINE
  8
16
 66
1
 10
0.0000
 20
0.0000
 30
0.0000
 40
0.3048
 41
0.3048
 70
0
  0
VERTEX
  8
16
 10
1.1176
 20
1.9050
 30
0.0000
 42
1.0000
  0
VERTEX
  8
16
 10
1.4224
 20
1.9050
 30
0.0000
  0
SEQEND
  8
0
  0
POLYLINE
  8
16
 66
1
 10
0.0000
 20
0.0000
 30
0.0000
 40
0.3048
 41
0.3048
 70
0
  0
VERTEX
  8
16
 10
1.4224
 20
2.5400
 30
0.0000
 42
1.0000
  0
VERTEX
  8
16
 10
1.1176
 20
2.5400
 30
0.0000
  0
SEQEND
  8
0
  0
POLYLINE
  8
16
 66
1
 10
0.0000
 20
0.0000
 30
0.0000
 40
0.6096
 41
0.6096
 70
0
  0
VERTEX
  8
16
 10
1.2700
 20
1.9050
 30
0.0000
  0
VERTEX
  8
16
 10
2.5400
 20
0.6350
 30
0.0000
  0
SEQEND
  8
0
  0
POLYLINE
  8
16
 66
1
 10
0.0000
 20
0.0000
 30
0.0000
 40
0.3048
 41
0.3048
 70
0
  0
VERTEX
  8
16
 10
2.4322
 20
0.5272
 30
0.0000
 42
1.0000
  0
VERTEX
  8
16
 10
2.6478
 20
0.7428
 30
0.0000
  0
SEQEND
  8
0
  0
POLYLINE
  8
16
 66
1
 10
0.0000
 20
0.0000
 30
0.0000
 40
0.3048
 41
0.3048
 70
0
  0
VERTEX
  8
16
 10
1.3778
 20
2.0128
 30
0.0000
 42
1.0000
  0
VERTEX
  8
16
 10
1.1622
 20
1.7972
 30
0.0000
  0
SEQEND
  8
0
  0
POLYLINE
  8
16
 66
1
 10
0.0000
 20
0.0000
 30
0.0000
 40
0.6096
 41
0.6096
 70
0
  0
VERTEX
  8
16
 10
2.5400
 20
0.6350
 30
0.0000
  0
VERTEX
  8
16
 10
6.3500
 20
0.6350
 30
0.0000
  0
SEQEND
  8
0
  0
POLYLINE
  8
16
 66
1
 10
0.0000
 20
0.0000
 30
0.0000
 40
0.3048
 41
0.3048
 70
0
  0
VERTEX
  8
16
 10
6.3500
 20
0.4826
 30
0.0000
 42
1.0000
  0
VERTEX
  8
16
 10
6.3500
 20
0.7874
 30
0.0000
  0
SEQEND
  8
0
  0
POLYLINE
  8
16
 66
1
 10
0.0000
 20
0.0000
 30
0.0000
 40
0.3048
 41
0.3048
 70
0
  0
VERTEX
  8
16
 10
2.5400
 20
0.7874
 30
0.0000
 42
1.0000
  0
VERTEX
  8
16
 10
2.5400
 20
0.4826
 30
0.0000
  0
SEQEND
  8
0
  0
POLYLINE
  8
16
 66
1
 10
0.0000
 20
0.0000
 30
0.0000
 40
0.6096
 41
0.6096
 70
0
  0
VERTEX
  8
16
 10
6.3500
 20
0.6350
 30
0.0000
  0
VERTEX
  8
16
 10
11.4300
 20
0.6350
 30
0.0000
  0
SEQEND
  8
0
  0
POLYLINE
  8
16
 66
1
 10
0.0000
 20
0.0000
 30
0.0000
 40
0.3048
 41
0.3048
 70
0
  0
VERTEX
  8
16
 10
11.4300
 20
0.4826
 30
0.0000
 42
1.0000
  0
VERTEX
  8
16
 10
11.4300
 20
0.7874
 30
0.0000
  0
SEQEND
  8
0
  0
POLYLINE
  8
16
 66
1
 10
0.0000
 20
0.0000
 30
0.0000
 40
0.3048
 41
0.3048
 70
0
  0
VERTEX
  8
16
 10
6.3500
 20
0.7874
 30
0.0000
 42
1.0000
  0
VERTEX
  8
16
 10
6.3500
 20
0.4826
 30
0.0000
  0
SEQEND
  8
0
  0
POLYLINE
  8
16
 66
1
 10
0.0000
 20
0.0000
 30
0.0000
 40
0.6096
 41
0.6096
 70
0
  0
VERTEX
  8
16
 10
11.4300
 20
0.6350
 30
0.0000
  0
VERTEX
  8
16
 10
16.5100
 20
0.6350
 30
0.0000
  0
SEQEND
  8
0
  0
POLYLINE
  8
16
 66
1
 10
0.0000
 20
0.0000
 30
0.0000
 40
0.3048
 41
0.3048
 70
0
  0
VERTEX
  8
16
 10
16.5100
 20
0.4826
 30
0.0000
 42
1.0000
  0
VERTEX
  8
16
 10
16.5100
 20
0.7874
 30
0.0000
  0
SEQEND
  8
0
  0
POLYLINE
  8
16
 66
1
 10
0.0000
 20
0.0000
 30
0.0000
 40
0.3048
 41
0.3048
 70
0
  0
VERTEX
  8
16
 10
11.4300
 20
0.7874
 30
0.0000
 42
1.0000
  0
VERTEX
  8
16
 10
11.4300
 20
0.4826
 30
0.0000
  0
SEQEND
  8
0
  0
POLYLINE
  8
16
 66
1
 10
0.0000
 20
0.0000
 30
0.0000
 40
0.6096
 41
0.6096
 70
0
  0
VERTEX
  8
16
 10
16.5100
 20
0.6350
 30
0.0000
  0
VERTEX
  8
16
 10
21.5900
 20
0.6350
 30
0.0000
  0
SEQEND
  8
0
  0
POLYLINE
  8
16
 66
1
 10
0.0000
 20
0.0000
 30
0.0000
 40
0.3048
 41
0.3048
 70
0
  0
VERTEX
  8
16
 10
21.5900
 20
0.4826
 30
0.0000
 42
1.0000
  0
VERTEX
  8
16
 10
21.5900
 20
0.7874
 30
0.0000
  0
SEQEND
  8
0
  0
POLYLINE
  8
16
 66
1
 10
0.0000
 20
0.0000
 30
0.0000
 40
0.3048
 41
0.3048
 70
0
  0
VERTEX
  8
16
 10
16.5100
 20
0.7874
 30
0.0000
 42
1.0000
  0
VERTEX
  8
16
 10
16.5100
 20
0.4826
 30
0.0000
  0
SEQEND
  8
0
  0
POLYLINE
  8
16
 66
1
 10
0.0000
 20
0.0000
 30
0.0000
 40
0.6096
 41
0.6096
 70
0
  0
VERTEX
  8
16
 10
21.5900
 20
0.6350
 30
0.0000
  0
VERTEX
  8
16
 10
26.6700
 20
0.6350
 30
0.0000
  0
SEQEND
  8
0
  0
POLYLINE
  8
16
 66
1
 10
0.0000
 20
0.0000
 30
0.0000
 40
0.3048
 41
0.3048
 70
0
  0
VERTEX
  8
16
 10
26.6700
 20
0.4826
 30
0.0000
 42
1.0000
  0
VERTEX
  8
16
 10
26.6700
 20
0.7874
 30
0.0000
  0
SEQEND
  8
0
  0
POLYLINE
  8
16
 66
1
 10
0.0000
 20
0.0000
 30
0.0000
 40
0.3048
 41
0.3048
 70
0
  0
VERTEX
  8
16
 10
21.5900
 20
0.7874
 30
0.0000
 42
1.0000
  0
VERTEX
  8
16
 10
21.5900
 20
0.4826
 30
0.0000
  0
SEQEND
  8
0
  0
POLYLINE
  8
16
 66
1
 10
0.0000
 20
0.0000
 30
0.0000
 40
0.6096
 41
0.6096
 70
0
  0
VERTEX
  8
16
 10
26.6700
 20
0.6350
 30
0.0000
  0
VERTEX
  8
16
 10
31.7500
 20
0.6350
 30
0.0000
  0
SEQEND
  8
0
  0
POLYLINE
  8
16
 66
1
 10
0.0000
 20
0.0000
 30
0.0000
 40
0.3048
 41
0.3048
 70
0
  0
VERTEX
  8
16
 10
31.7500
 20
0.4826
 30
0.0000
 42
1.0000
  0
VERTEX
  8
16
 10
31.7500
 20
0.7874
 30
0.0000
  0
SEQEND
  8
0
  0
POLYLINE
  8
16
 66
1
 10
0.0000
 20
0.0000
 30
0.0000
 40
0.3048
 41
0.3048
 70
0
  0
VERTEX
  8
16
 10
26.6700
 20
0.7874
 30
0.0000
 42
1.0000
  0
VERTEX
  8
16
 10
26.6700
 20
0.4826
 30
0.0000
  0
SEQEND
  8
0
  0
POLYLINE
  8
16
 66
1
 10
0.0000
 20
0.0000
 30
0.0000
 40
0.6096
 41
0.6096
 70
0
  0
VERTEX
  8
16
 10
31.7500
 20
0.6350
 30
0.0000
  0
VERTEX
  8
16
 10
36.8300
 20
0.6350
 30
0.0000
  0
SEQEND
  8
0
  0
POLYLINE
  8
16
 66
1
 10
0.0000
 20
0.0000
 30
0.0000
 40
0.3048
 41
0.3048
 70
0
  0
VERTEX
  8
16
 10
36.8300
 20
0.4826
 30
0.0000
 42
1.0000
  0
VERTEX
  8
16
 10
36.8300
 20
0.7874
 30
0.0000
  0
SEQEND
  8
0
  0
POLYLINE
  8
16
 66
1
 10
0.0000
 20
0.0000
 30
0.0000
 40
0.3048
 41
0.3048
 70
0
  0
VERTEX
  8
16
 10
31.7500
 20
0.7874
 30
0.0000
 42
1.0000
  0
VERTEX
  8
16
 10
31.7500
 20
0.4826
 30
0.0000
  0
SEQEND
  8
0
  0
POLYLINE
  8
16
 66
1
 10
0.0000
 20
0.0000
 30
0.0000
 40
0.6096
 41
0.6096
 70
0
  0
VERTEX
  8
16
 10
36.8300
 20
0.6350
 30
0.0000
  0
VERTEX
  8
16
 10
41.9100
 20
0.6350
 30
0.0000
  0
SEQEND
  8
0
  0
POLYLINE
  8
16
 66
1
 10
0.0000
 20
0.0000
 30
0.0000
 40
0.3048
 41
0.3048
 70
0
  0
VERTEX
  8
16
 10
41.9100
 20
0.4826
 30
0.0000
 42
1.0000
  0
VERTEX
  8
16
 10
41.9100
 20
0.7874
 30
0.0000
  0
SEQEND
  8
0
  0
POLYLINE
  8
16
 66
1
 10
0.0000
 20
0.0000
 30
0.0000
 40
0.3048
 41
0.3048
 70
0
  0
VERTEX
  8
16
 10
36.8300
 20
0.7874
 30
0.0000
 42
1.0000
  0
VERTEX
  8
16
 10
36.8300
 20
0.4826
 30
0.0000
  0
SEQEND
  8
0
  0
POLYLINE
  8
16
 66
1
 10
0.0000
 20
0.0000
 30
0.0000
 40
0.6096
 41
0.6096
 70
0
  0
VERTEX
  8
16
 10
41.9100
 20
0.6350
 30
0.0000
  0
VERTEX
  8
16
 10
46.9900
 20
0.6350
 30
0.0000
  0
SEQEND
  8
0
  0
POLYLINE
  8
16
 66
1
 10
0.0000
 20
0.0000
 30
0.0000
 40
0.3048
 41
0.3048
 70
0
  0
VERTEX
  8
16
 10
46.9900
 20
0.4826
 30
0.0000
 42
1.0000
  0
VERTEX
  8
16
 10
46.9900
 20
0.7874
 30
0.0000
  0
SEQEND
  8
0
  0
POLYLINE
  8
16
 66
1
 10
0.0000
 20
0.0000
 30
0.0000
 40
0.3048
 41
0.3048
 70
0
  0
VERTEX
  8
16
 10
41.9100
 20
0.7874
 30
0.0000
 42
1.0000
  0
VERTEX
  8
16
 10
41.9100
 20
0.4826
 30
0.0000
  0
SEQEND
  8
0
  0
POLYLINE
  8
16
 66
1
 10
0.0000
 20
0.0000
 30
0.0000
 40
0.6096
 41
0.6096
 70
0
  0
VERTEX
  8
16
 10
46.9900
 20
0.6350
 30
0.0000
  0
VERTEX
  8
16
 10
52.0700
 20
0.6350
 30
0.0000
  0
SEQEND
  8
0
  0
POLYLINE
  8
16
 66
1
 10
0.0000
 20
0.0000
 30
0.0000
 40
0.3048
 41
0.3048
 70
0
  0
VERTEX
  8
16
 10
52.0700
 20
0.4826
 30
0.0000
 42
1.0000
  0
VERTEX
  8
16
 10
52.0700
 20
0.7874
 30
0.0000
  0
SEQEND
  8
0
  0
POLYLINE
  8
16
 66
1
 10
0.0000
 20
0.0000
 30
0.0000
 40
0.3048
 41
0.3048
 70
0
  0
VERTEX
  8
16
 10
46.9900
 20
0.7874
 30
0.0000
 42
1.0000
  0
VERTEX
  8
16
 10
46.9900
 20
0.4826
 30
0.0000
  0
SEQEND
  8
0
  0
POLYLINE
  8
16
 66
1
 10
0.0000
 20
0.0000
 30
0.0000
 40
0.6096
 41
0.6096
 70
0
  0
VERTEX
  8
16
 10
52.0700
 20
0.6350
 30
0.0000
  0
VERTEX
  8
16
 10
57.1500
 20
0.6350
 30
0.0000
  0
SEQEND
  8
0
  0
POLYLINE
  8
16
 66
1
 10
0.0000
 20
0.0000
 30
0.0000
 40
0.3048
 41
0.3048
 70
0
  0
VERTEX
  8
16
 10
57.1500
 20
0.4826
 30
0.0000
 42
1.0000
  0
VERTEX
  8
16
 10
57.1500
 20
0.7874
 30
0.0000
  0
SEQEND
  8
0
  0
POLYLINE
  8
16
 66
1
 10
0.0000
 20
0.0000
 30
0.0000
 40
0.3048
 41
0.3048
 70
0
  0
VERTEX
  8
16
 10
52.0700
 20
0.7874
 30
0.0000
 42
1.0000
  0
VERTEX
  8
16
 10
52.0700
 20
0.4826
 30
0.0000
  0
SEQEND
  8
0
  0
POLYLINE
  8
16
 66
1
 10
0.0000
 20
0.0000
 30
0.0000
 40
0.6096
 41
0.6096
 70
0
  0
VERTEX
  8
16
 10
57.1500
 20
0.6350
 30
0.0000
  0
VERTEX
  8
16
 10
62.2300
 20
0.6350
 30
0.0000
  0
SEQEND
  8
0
  0
POLYLINE
  8
16
 66
1
 10
0.0000
 20
0.0000
 30
0.0000
 40
0.3048
 41
0.3048
 70
0
  0
VERTEX
  8
16
 10
62.2300
 20
0.4826
 30
0.0000
 42
1.0000
  0
VERTEX
  8
16
 10
62.2300
 20
0.7874
 30
0.0000
  0
SEQEND
  8
0
  0
POLYLINE
  8
16
 66
1
 10
0.0000
 20
0.0000
 30
0.0000
 40
0.3048
 41
0.3048
 70
0
  0
VERTEX
  8
16
 10
57.1500
 20
0.7874
 30
0.0000
 42
1.0000
  0
VERTEX
  8
16
 10
57.1500
 20
0.4826
 30
0.0000
  0
SEQEND
  8
0
  0
POLYLINE
  8
16
 66
1
 10
0.0000
 20
0.0000
 30
0.0000
 40
0.6096
 41
0.6096
 70
0
  0
VERTEX
  8
16
 10
62.2300
 20
0.6350
 30
0.0000
  0
VERTEX
  8
16
 10
67.3100
 20
0.6350
 30
0.0000
  0
SEQEND
  8
0
  0
POLYLINE
  8
16
 66
1
 10
0.0000
 20
0.0000
 30
0.0000
 40
0.3048
 41
0.3048
 70
0
  0
VERTEX
  8
16
 10
67.3100
 20
0.4826
 30
0.0000
 42
1.0000
  0
VERTEX
  8
16
 10
67.3100
 20
0.7874
 30
0.0000
  0
SEQEND
  8
0
  0
POLYLINE
  8
16
 66
1
 10
0.0000
 20
0.0000
 30
0.0000
 40
0.3048
 41
0.3048
 70
0
  0
VERTEX
  8
16
 10
62.2300
 20
0.7874
 30
0.0000
 42
1.0000
  0
VERTEX
  8
16
 10
62.2300
 20
0.4826
 30
0.0000
  0
SEQEND
  8
0
  0
POLYLINE
  8
16
 66
1
 10
0.0000
 20
0.0000
 30
0.0000
 40
0.6096
 41
0.6096
 70
0
  0
VERTEX
  8
16
 10
67.3100
 20
0.6350
 30
0.0000
  0
VERTEX
  8
16
 10
72.3900
 20
0.6350
 30
0.0000
  0
SEQEND
  8
0
  0
POLYLINE
  8
16
 66
1
 10
0.0000
 20
0.0000
 30
0.0000
 40
0.3048
 41
0.3048
 70
0
  0
VERTEX
  8
16
 10
72.3900
 20
0.4826
 30
0.0000
 42
1.0000
  0
VERTEX
  8
16
 10
72.3900
 20
0.7874
 30
0.0000
  0
SEQEND
  8
0
  0
POLYLINE
  8
16
 66
1
 10
0.0000
 20
0.0000
 30
0.0000
 40
0.3048
 41
0.3048
 70
0
  0
VERTEX
  8
16
 10
67.3100
 20
0.7874
 30
0.0000
 42
1.0000
  0
VERTEX
  8
16
 10
67.3100
 20
0.4826
 30
0.0000
  0
SEQEND
  8
0
  0
POLYLINE
  8
16
 66
1
 10
0.0000
 20
0.0000
 30
0.0000
 40
0.6096
 41
0.6096
 70
0
  0
VERTEX
  8
16
 10
72.3900
 20
0.6350
 30
0.0000
  0
VERTEX
  8
16
 10
75.5650
 20
0.6350
 30
0.0000
  0
SEQEND
  8
0
  0
POLYLINE
  8
16
 66
1
 10
0.0000
 20
0.0000
 30
0.0000
 40
0.3048
 41
0.3048
 70
0
  0
VERTEX
  8
16
 10
75.5650
 20
0.4826
 30
0.0000
 42
1.0000
  0
VERTEX
  8
16
 10
75.5650
 20
0.7874
 30
0.0000
  0
SEQEND
  8
0
  0
POLYLINE
  8
16
 66
1
 10
0.0000
 20
0.0000
 30
0.0000
 40
0.3048
 41
0.3048
 70
0
  0
VERTEX
  8
16
 10
72.3900
 20
0.7874
 30
0.0000
 42
1.0000
  0
VERTEX
  8
16
 10
72.3900
 20
0.4826
 30
0.0000
  0
SEQEND
  8
0
  0
POLYLINE
  8
16
 66
1
 10
0.0000
 20
0.0000
 30
0.0000
 40
0.6096
 41
0.6096
 70
0
  0
VERTEX
  8
16
 10
75.5650
 20
0.6350
 30
0.0000
  0
VERTEX
  8
16
 10
77.4700
 20
2.5400
 30
0.0000
  0
SEQEND
  8
0
  0
POLYLINE
  8
16
 66
1
 10
0.0000
 20
0.0000
 30
0.0000
 40
0.3048
 41
0.3048
 70
0
  0
VERTEX
  8
16
 10
77.5778
 20
2.4322
 30
0.0000
 42
1.0000
  0
VERTEX
  8
16
 10
77.3622
 20
2.6478
 30
0.0000
  0
SEQEND
  8
0
  0
POLYLINE
  8
16
 66
1
 10
0.0000
 20
0.0000
 30
0.0000
 40
0.3048
 41
0.3048
 70
0
  0
VERTEX
  8
16
 10
75.4572
 20
0.7428
 30
0.0000
 42
1.0000
  0
VERTEX
  8
16
 10
75.6728
 20
0.5272
 30
0.0000
  0
SEQEND
  8
0
  0
POLYLINE
  8
16
 66
1
 10
0.0000
 20
0.0000
 30
0.0000
 40
0.6096
 41
0.6096
 70
0
  0
VERTEX
  8
16
 10
77.4700
 20
2.5400
 30
0.0000
  0
VERTEX
  8
16
 10
77.4700
 20
9.5250
 30
0.0000
  0
SEQEND
  8
0
  0
POLYLINE
  8
16
 66
1
 10
0.0000
 20
0.0000
 30
0.0000
 40
0.3048
 41
0.3048
 70
0
  0
VERTEX
  8
16
 10
77.6224
 20
9.5250
 30
0.0000
 42
1.0000
  0
VERTEX
  8
16
 10
77.3176
 20
9.5250
 30
0.0000
  0
SEQEND
  8
0
  0
POLYLINE
  8
16
 66
1
 10
0.0000
 20
0.0000
 30
0.0000
 40
0.3048
 41
0.3048
 70
0
  0
VERTEX
  8
16
 10
77.3176
 20
2.5400
 30
0.0000
 42
1.0000
  0
VERTEX
  8
16
 10
77.6224
 20
2.5400
 30
0.0000
  0
SEQEND
  8
0
  0
POLYLINE
  8
16
 66
1
 10
0.0000
 20
0.0000
 30
0.0000
 40
0.6096
 41
0.6096
 70
0
  0
VERTEX
  8
16
 10
77.4700
 20
9.5250
 30
0.0000
  0
VERTEX
  8
16
 10
78.7400
 20
10.7950
 30
0.0000
  0
SEQEND
  8
0
  0
POLYLINE
  8
16
 66
1
 10
0.0000
 20
0.0000
 30
0.0000
 40
0.3048
 41
0.3048
 70
0
  0
VERTEX
  8
16
 10
78.8478
 20
10.6872
 30
0.0000
 42
1.0000
  0
VERTEX
  8
16
 10
78.6322
 20
10.9028
 30
0.0000
  0
SEQEND
  8
0
  0
POLYLINE
  8
16
 66
1
 10
0.0000
 20
0.0000
 30
0.0000
 40
0.3048
 41
0.3048
 70
0
  0
VERTEX
  8
16
 10
77.3622
 20
9.6328
 30
0.0000
 42
1.0000
  0
VERTEX
  8
16
 10
77.5778
 20
9.4172
 30
0.0000
  0
SEQEND
  8
0
  0
POLYLINE
  8
16
 66
1
 10
0.0000
 20
0.0000
 30
0.0000
 40
0.6096
 41
0.6096
 70
0
  0
VERTEX
  8
16
 10
72.3900
 20
2.5400
 30
0.0000
  0
VERTEX
  8
16
 10
72.3900
 20
0.6350
 30
0.0000
  0
SEQEND
  8
0
  0
POLYLINE
  8
16
 66
1
 10
0.0000
 20
0.0000
 30
0.0000
 40
0.3048
 41
0.3048
 70
0
  0
VERTEX
  8
16
 10
72.2376
 20
0.6350
 30
0.0000
 42
1.0000
  0
VERTEX
  8
16
 10
72.5424
 20
0.6350
 30
0.0000
  0
SEQEND
  8
0
  0
POLYLINE
  8
16
 66
1
 10
0.0000
 20
0.0000
 30
0.0000
 40
0.3048
 41
0.3048
 70
0
  0
VERTEX
  8
16
 10
72.5424
 20
2.5400
 30
0.0000
 42
1.0000
  0
VERTEX
  8
16
 10
72.2376
 20
2.5400
 30
0.0000
  0
SEQEND
  8
0
  0
POLYLINE
  8
16
 66
1
 10
0.0000
 20
0.0000
 30
0.0000
 40
0.6096
 41
0.6096
 70
0
  0
VERTEX
  8
16
 10
67.3100
 20
2.5400
 30
0.0000
  0
VERTEX
  8
16
 10
67.3100
 20
0.6350
 30
0.0000
  0
SEQEND
  8
0
  0
POLYLINE
  8
16
 66
1
 10
0.0000
 20
0.0000
 30
0.0000
 40
0.3048
 41
0.3048
 70
0
  0
VERTEX
  8
16
 10
67.1576
 20
0.6350
 30
0.0000
 42
1.0000
  0
VERTEX
  8
16
 10
67.4624
 20
0.6350
 30
0.0000
  0
SEQEND
  8
0
  0
POLYLINE
  8
16
 66
1
 10
0.0000
 20
0.0000
 30
0.0000
 40
0.3048
 41
0.3048
 70
0
  0
VERTEX
  8
16
 10
67.4624
 20
2.5400
 30
0.0000
 42
1.0000
  0
VERTEX
  8
16
 10
67.1576
 20
2.5400
 30
0.0000
  0
SEQEND
  8
0
  0
POLYLINE
  8
16
 66
1
 10
0.0000
 20
0.0000
 30
0.0000
 40
0.6096
 41
0.6096
 70
0
  0
VERTEX
  8
16
 10
62.2300
 20
2.5400
 30
0.0000
  0
VERTEX
  8
16
 10
62.2300
 20
0.6350
 30
0.0000
  0
SEQEND
  8
0
  0
POLYLINE
  8
16
 66
1
 10
0.0000
 20
0.0000
 30
0.0000
 40
0.3048
 41
0.3048
 70
0
  0
VERTEX
  8
16
 10
62.0776
 20
0.6350
 30
0.0000
 42
1.0000
  0
VERTEX
  8
16
 10
62.3824
 20
0.6350
 30
0.0000
  0
SEQEND
  8
0
  0
POLYLINE
  8
16
 66
1
 10
0.0000
 20
0.0000
 30
0.0000
 40
0.3048
 41
0.3048
 70
0
  0
VERTEX
  8
16
 10
62.3824
 20
2.5400
 30
0.0000
 42
1.0000
  0
VERTEX
  8
16
 10
62.0776
 20
2.5400
 30
0.0000
  0
SEQEND
  8
0
  0
POLYLINE
  8
16
 66
1
 10
0.0000
 20
0.0000
 30
0.0000
 40
0.6096
 41
0.6096
 70
0
  0
VERTEX
  8
16
 10
57.1500
 20
2.5400
 30
0.0000
  0
VERTEX
  8
16
 10
57.1500
 20
0.6350
 30
0.0000
  0
SEQEND
  8
0
  0
POLYLINE
  8
16
 66
1
 10
0.0000
 20
0.0000
 30
0.0000
 40
0.3048
 41
0.3048
 70
0
  0
VERTEX
  8
16
 10
56.9976
 20
0.6350
 30
0.0000
 42
1.0000
  0
VERTEX
  8
16
 10
57.3024
 20
0.6350
 30
0.0000
  0
SEQEND
  8
0
  0
POLYLINE
  8
16
 66
1
 10
0.0000
 20
0.0000
 30
0.0000
 40
0.3048
 41
0.3048
 70
0
  0
VERTEX
  8
16
 10
57.3024
 20
2.5400
 30
0.0000
 42
1.0000
  0
VERTEX
  8
16
 10
56.9976
 20
2.5400
 30
0.0000
  0
SEQEND
  8
0
  0
POLYLINE
  8
16
 66
1
 10
0.0000
 20
0.0000
 30
0.0000
 40
0.6096
 41
0.6096
 70
0
  0
VERTEX
  8
16
 10
52.0700
 20
2.5400
 30
0.0000
  0
VERTEX
  8
16
 10
52.0700
 20
0.6350
 30
0.0000
  0
SEQEND
  8
0
  0
POLYLINE
  8
16
 66
1
 10
0.0000
 20
0.0000
 30
0.0000
 40
0.3048
 41
0.3048
 70
0
  0
VERTEX
  8
16
 10
51.9176
 20
0.6350
 30
0.0000
 42
1.0000
  0
VERTEX
  8
16
 10
52.2224
 20
0.6350
 30
0.0000
  0
SEQEND
  8
0
  0
POLYLINE
  8
16
 66
1
 10
0.0000
 20
0.0000
 30
0.0000
 40
0.3048
 41
0.3048
 70
0
  0
VERTEX
  8
16
 10
52.2224
 20
2.5400
 30
0.0000
 42
1.0000
  0
VERTEX
  8
16
 10
51.9176
 20
2.5400
 30
0.0000
  0
SEQEND
  8
0
  0
POLYLINE
  8
16
 66
1
 10
0.0000
 20
0.0000
 30
0.0000
 40
0.6096
 41
0.6096
 70
0
  0
VERTEX
  8
16
 10
46.9900
 20
2.5400
 30
0.0000
  0
VERTEX
  8
16
 10
46.9900
 20
0.6350
 30
0.0000
  0
SEQEND
  8
0
  0
POLYLINE
  8
16
 66
1
 10
0.0000
 20
0.0000
 30
0.0000
 40
0.3048
 41
0.3048
 70
0
  0
VERTEX
  8
16
 10
46.8376
 20
0.6350
 30
0.0000
 42
1.0000
  0
VERTEX
  8
16
 10
47.1424
 20
0.6350
 30
0.0000
  0
SEQEND
  8
0
  0
POLYLINE
  8
16
 66
1
 10
0.0000
 20
0.0000
 30
0.0000
 40
0.3048
 41
0.3048
 70
0
  0
VERTEX
  8
16
 10
47.1424
 20
2.5400
 30
0.0000
 42
1.0000
  0
VERTEX
  8
16
 10
46.8376
 20
2.5400
 30
0.0000
  0
SEQEND
  8
0
  0
POLYLINE
  8
16
 66
1
 10
0.0000
 20
0.0000
 30
0.0000
 40
0.6096
 41
0.6096
 70
0
  0
VERTEX
  8
16
 10
41.9100
 20
2.5400
 30
0.0000
  0
VERTEX
  8
16
 10
41.9100
 20
0.6350
 30
0.0000
  0
SEQEND
  8
0
  0
POLYLINE
  8
16
 66
1
 10
0.0000
 20
0.0000
 30
0.0000
 40
0.3048
 41
0.3048
 70
0
  0
VERTEX
  8
16
 10
41.7576
 20
0.6350
 30
0.0000
 42
1.0000
  0
VERTEX
  8
16
 10
42.0624
 20
0.6350
 30
0.0000
  0
SEQEND
  8
0
  0
POLYLINE
  8
16
 66
1
 10
0.0000
 20
0.0000
 30
0.0000
 40
0.3048
 41
0.3048
 70
0
  0
VERTEX
  8
16
 10
42.0624
 20
2.5400
 30
0.0000
 42
1.0000
  0
VERTEX
  8
16
 10
41.7576
 20
2.5400
 30
0.0000
  0
SEQEND
  8
0
  0
POLYLINE
  8
16
 66
1
 10
0.0000
 20
0.0000
 30
0.0000
 40
0.6096
 41
0.6096
 70
0
  0
VERTEX
  8
16
 10
36.8300
 20
2.5400
 30
0.0000
  0
VERTEX
  8
16
 10
36.8300
 20
0.6350
 30
0.0000
  0
SEQEND
  8
0
  0
POLYLINE
  8
16
 66
1
 10
0.0000
 20
0.0000
 30
0.0000
 40
0.3048
 41
0.3048
 70
0
  0
VERTEX
  8
16
 10
36.6776
 20
0.6350
 30
0.0000
 42
1.0000
  0
VERTEX
  8
16
 10
36.9824
 20
0.6350
 30
0.0000
  0
SEQEND
  8
0
  0
POLYLINE
  8
16
 66
1
 10
0.0000
 20
0.0000
 30
0.0000
 40
0.3048
 41
0.3048
 70
0
  0
VERTEX
  8
16
 10
36.9824
 20
2.5400
 30
0.0000
 42
1.0000
  0
VERTEX
  8
16
 10
36.6776
 20
2.5400
 30
0.0000
  0
SEQEND
  8
0
  0
POLYLINE
  8
16
 66
1
 10
0.0000
 20
0.0000
 30
0.0000
 40
0.6096
 41
0.6096
 70
0
  0
VERTEX
  8
16
 10
31.7500
 20
2.5400
 30
0.0000
  0
VERTEX
  8
16
 10
31.7500
 20
0.6350
 30
0.0000
  0
SEQEND
  8
0
  0
POLYLINE
  8
16
 66
1
 10
0.0000
 20
0.0000
 30
0.0000
 40
0.3048
 41
0.3048
 70
0
  0
VERTEX
  8
16
 10
31.5976
 20
0.6350
 30
0.0000
 42
1.0000
  0
VERTEX
  8
16
 10
31.9024
 20
0.6350
 30
0.0000
  0
SEQEND
  8
0
  0
POLYLINE
  8
16
 66
1
 10
0.0000
 20
0.0000
 30
0.0000
 40
0.3048
 41
0.3048
 70
0
  0
VERTEX
  8
16
 10
31.9024
 20
2.5400
 30
0.0000
 42
1.0000
  0
VERTEX
  8
16
 10
31.5976
 20
2.5400
 30
0.0000
  0
SEQEND
  8
0
  0
POLYLINE
  8
16
 66
1
 10
0.0000
 20
0.0000
 30
0.0000
 40
0.6096
 41
0.6096
 70
0
  0
VERTEX
  8
16
 10
26.6700
 20
2.5400
 30
0.0000
  0
VERTEX
  8
16
 10
26.6700
 20
0.6350
 30
0.0000
  0
SEQEND
  8
0
  0
POLYLINE
  8
16
 66
1
 10
0.0000
 20
0.0000
 30
0.0000
 40
0.3048
 41
0.3048
 70
0
  0
VERTEX
  8
16
 10
26.5176
 20
0.6350
 30
0.0000
 42
1.0000
  0
VERTEX
  8
16
 10
26.8224
 20
0.6350
 30
0.0000
  0
SEQEND
  8
0
  0
POLYLINE
  8
16
 66
1
 10
0.0000
 20
0.0000
 30
0.0000
 40
0.3048
 41
0.3048
 70
0
  0
VERTEX
  8
16
 10
26.8224
 20
2.5400
 30
0.0000
 42
1.0000
  0
VERTEX
  8
16
 10
26.5176
 20
2.5400
 30
0.0000
  0
SEQEND
  8
0
  0
POLYLINE
  8
16
 66
1
 10
0.0000
 20
0.0000
 30
0.0000
 40
0.6096
 41
0.6096
 70
0
  0
VERTEX
  8
16
 10
21.5900
 20
2.5400
 30
0.0000
  0
VERTEX
  8
16
 10
21.5900
 20
0.6350
 30
0.0000
  0
SEQEND
  8
0
  0
POLYLINE
  8
16
 66
1
 10
0.0000
 20
0.0000
 30
0.0000
 40
0.3048
 41
0.3048
 70
0
  0
VERTEX
  8
16
 10
21.4376
 20
0.6350
 30
0.0000
 42
1.0000
  0
VERTEX
  8
16
 10
21.7424
 20
0.6350
 30
0.0000
  0
SEQEND
  8
0
  0
POLYLINE
  8
16
 66
1
 10
0.0000
 20
0.0000
 30
0.0000
 40
0.3048
 41
0.3048
 70
0
  0
VERTEX
  8
16
 10
21.7424
 20
2.5400
 30
0.0000
 42
1.0000
  0
VERTEX
  8
16
 10
21.4376
 20
2.5400
 30
0.0000
  0
SEQEND
  8
0
  0
POLYLINE
  8
16
 66
1
 10
0.0000
 20
0.0000
 30
0.0000
 40
0.6096
 41
0.6096
 70
0
  0
VERTEX
  8
16
 10
16.5100
 20
2.5400
 30
0.0000
  0
VERTEX
  8
16
 10
16.5100
 20
0.6350
 30
0.0000
  0
SEQEND
  8
0
  0
POLYLINE
  8
16
 66
1
 10
0.0000
 20
0.0000
 30
0.0000
 40
0.3048
 41
0.3048
 70
0
  0
VERTEX
  8
16
 10
16.3576
 20
0.6350
 30
0.0000
 42
1.0000
  0
VERTEX
  8
16
 10
16.6624
 20
0.6350
 30
0.0000
  0
SEQEND
  8
0
  0
POLYLINE
  8
16
 66
1
 10
0.0000
 20
0.0000
 30
0.0000
 40
0.3048
 41
0.3048
 70
0
  0
VERTEX
  8
16
 10
16.6624
 20
2.5400
 30
0.0000
 42
1.0000
  0
VERTEX
  8
16
 10
16.3576
 20
2.5400
 30
0.0000
  0
SEQEND
  8
0
  0
POLYLINE
  8
16
 66
1
 10
0.0000
 20
0.0000
 30
0.0000
 40
0.6096
 41
0.6096
 70
0
  0
VERTEX
  8
16
 10
11.4300
 20
2.5400
 30
0.0000
  0
VERTEX
  8
16
 10
11.4300
 20
0.6350
 30
0.0000
  0
SEQEND
  8
0
  0
POLYLINE
  8
16
 66
1
 10
0.0000
 20
0.0000
 30
0.0000
 40
0.3048
 41
0.3048
 70
0
  0
VERTEX
  8
16
 10
11.2776
 20
0.6350
 30
0.0000
 42
1.0000
  0
VERTEX
  8
16
 10
11.5824
 20
0.6350
 30
0.0000
  0
SEQEND
  8
0
  0
POLYLINE
  8
16
 66
1
 10
0.0000
 20
0.0000
 30
0.0000
 40
0.3048
 41
0.3048
 70
0
  0
VERTEX
  8
16
 10
11.5824
 20
2.5400
 30
0.0000
 42
1.0000
  0
VERTEX
  8
16
 10
11.2776
 20
2.5400
 30
0.0000
  0
SEQEND
  8
0
  0
POLYLINE
  8
16
 66
1
 10
0.0000
 20
0.0000
 30
0.0000
 40
0.6096
 41
0.6096
 70
0
  0
VERTEX
  8
16
 10
6.3500
 20
2.5400
 30
0.0000
  0
VERTEX
  8
16
 10
6.3500
 20
0.6350
 30
0.0000
  0
SEQEND
  8
0
  0
POLYLINE
  8
16
 66
1
 10
0.0000
 20
0.0000
 30
0.0000
 40
0.3048
 41
0.3048
 70
0
  0
VERTEX
  8
16
 10
6.1976
 20
0.6350
 30
0.0000
 42
1.0000
  0
VERTEX
  8
16
 10
6.5024
 20
0.6350
 30
0.0000
  0
SEQEND
  8
0
  0
POLYLINE
  8
16
 66
1
 10
0.0000
 20
0.0000
 30
0.0000
 40
0.3048
 41
0.3048
 70
0
  0
VERTEX
  8
16
 10
6.5024
 20
2.5400
 30
0.0000
 42
1.0000
  0
VERTEX
  8
16
 10
6.1976
 20
2.5400
 30
0.0000
  0
SEQEND
  8
0
  0
POLYLINE
  8
1
 66
1
 10
0.0000
 20
0.0000
 30
0.0000
 40
0.4064
 41
0.4064
 70
0
  0
VERTEX
  8
1
 10
43.2400
 20
14.9225
 30
0.0000
  0
VERTEX
  8
1
 10
41.9100
 20
14.9225
 30
0.0000
  0
SEQEND
  8
0
  0
POLYLINE
  8
1
 66
1
 10
0.0000
 20
0.0000
 30
0.0000
 40
0.2032
 41
0.2032
 70
0
  0
VERTEX
  8
1
 10
41.9100
 20
15.0241
 30
0.0000
 42
1.0000
  0
VERTEX
  8
1
 10
41.9100
 20
14.8209
 30
0.0000
  0
SEQEND
  8
0
  0
POLYLINE
  8
1
 66
1
 10
0.0000
 20
0.0000
 30
0.0000
 40
0.2032
 41
0.2032
 70
0
  0
VERTEX
  8
1
 10
43.2400
 20
14.8209
 30
0.0000
 42
1.0000
  0
VERTEX
  8
1
 10
43.2400
 20
15.0241
 30
0.0000
  0
SEQEND
  8
0
  0
POLYLINE
  8
1
 66
1
 10
0.0000
 20
0.0000
 30
0.0000
 40
0.4064
 41
0.4064
 70
0
  0
VERTEX
  8
1
 10
41.9100
 20
14.9225
 30
0.0000
  0
VERTEX
  8
1
 10
40.3225
 20
13.3350
 30
0.0000
  0
SEQEND
  8
0
  0
POLYLINE
  8
1
 66
1
 10
0.0000
 20
0.0000
 30
0.0000
 40
0.2032
 41
0.2032
 70
0
  0
VERTEX
  8
1
 10
40.2507
 20
13.4068
 30
0.0000
 42
1.0000
  0
VERTEX
  8
1
 10
40.3943
 20
13.2632
 30
0.0000
  0
SEQEND
  8
0
  0
POLYLINE
  8
1
 66
1
 10
0.0000
 20
0.0000
 30
0.0000
 40
0.2032
 41
0.2032
 70
0
  0
VERTEX
  8
1
 10
41.9818
 20
14.8507
 30
0.0000
 42
1.0000
  0
VERTEX
  8
1
 10
41.8382
 20
14.9943
 30
0.0000
  0
SEQEND
  8
0
  0
POLYLINE
  8
1
 66
1
 10
0.0000
 20
0.0000
 30
0.0000
 40
0.4064
 41
0.4064
 70
0
  0
VERTEX
  8
1
 10
40.3225
 20
13.3350
 30
0.0000
  0
VERTEX
  8
1
 10
40.3225
 20
4.1275
 30
0.0000
  0
SEQEND
  8
0
  0
POLYLINE
  8
1
 66
1
 10
0.0000
 20
0.0000
 30
0.0000
 40
0.2032
 41
0.2032
 70
0
  0
VERTEX
  8
1
 10
40.2209
 20
4.1275
 30
0.0000
 42
1.0000
  0
VERTEX
  8
1
 10
40.4241
 20
4.1275
 30
0.0000
  0
SEQEND
  8
0
  0
POLYLINE
  8
1
 66
1
 10
0.0000
 20
0.0000
 30
0.0000
 40
0.2032
 41
0.2032
 70
0
  0
VERTEX
  8
1
 10
40.4241
 20
13.3350
 30
0.0000
 42
1.0000
  0
VERTEX
  8
1
 10
40.2209
 20
13.3350
 30
0.0000
  0
SEQEND
  8
0
  0
POLYLINE
  8
1
 66
1
 10
0.0000
 20
0.0000
 30
0.0000
 40
0.4064
 41
0.4064
 70
0
  0
VERTEX
  8
1
 10
40.3225
 20
4.1275
 30
0.0000
  0
VERTEX
  8
1
 10
41.9100
 20
2.5400
 30
0.0000
  0
SEQEND
  8
0
  0
POLYLINE
  8
1
 66
1
 10
0.0000
 20
0.0000
 30
0.0000
 40
0.2032
 41
0.2032
 70
0
  0
VERTEX
  8
1
 10
41.8382
 20
2.4682
 30
0.0000
 42
1.0000
  0
VERTEX
  8
1
 10
41.9818
 20
2.6118
 30
0.0000
  0
SEQEND
  8
0
  0
POLYLINE
  8
1
 66
1
 10
0.0000
 20
0.0000
 30
0.0000
 40
0.2032
 41
0.2032
 70
0
  0
VERTEX
  8
1
 10
40.3943
 20
4.1993
 30
0.0000
 42
1.0000
  0
VERTEX
  8
1
 10
40.2507
 20
4.0557
 30
0.0000
  0
SEQEND
  8
0
  0
POLYLINE
  8
1
 66
1
 10
0.0000
 20
0.0000
 30
0.0000
 40
0.4064
 41
0.4064
 70
0
  0
VERTEX
  8
1
 10
42.0400
 20
19.3675
 30
0.0000
  0
VERTEX
  8
1
 10
42.0400
 20
16.6400
 30
0.0000
  0
SEQEND
  8
0
  0
POLYLINE
  8
1
 66
1
 10
0.0000
 20
0.0000
 30
0.0000
 40
0.2032
 41
0.2032
 70
0
  0
VERTEX
  8
1
 10
41.9384
 20
16.6400
 30
0.0000
 42
1.0000
  0
VERTEX
  8
1
 10
42.1416
 20
16.6400
 30
0.0000
  0
SEQEND
  8
0
  0
POLYLINE
  8
1
 66
1
 10
0.0000
 20
0.0000
 30
0.0000
 40
0.2032
 41
0.2032
 70
0
  0
VERTEX
  8
1
 10
42.1416
 20
19.3675
 30
0.0000
 42
1.0000
  0
VERTEX
  8
1
 10
41.9384
 20
19.3675
 30
0.0000
  0
SEQEND
  8
0
  0
POLYLINE
  8
1
 66
1
 10
0.0000
 20
0.0000
 30
0.0000
 40
0.4064
 41
0.4064
 70
0
  0
VERTEX
  8
1
 10
42.0400
 20
16.6400
 30
0.0000
  0
VERTEX
  8
1
 10
40.3225
 20
14.9225
 30
0.0000
  0
SEQEND
  8
0
  0
POLYLINE
  8
1
 66
1
 10
0.0000
 20
0.0000
 30
0.0000
 40
0.2032
 41
0.2032
 70
0
  0
VERTEX
  8
1
 10
40.2507
 20
14.9943
 30
0.0000
 42
1.0000
  0
VERTEX
  8
1
 10
40.3943
 20
14.8507
 30
0.0000
  0
SEQEND
  8
0
  0
POLYLINE
  8
1
 66
1
 10
0.0000
 20
0.0000
 30
0.0000
 40
0.2032
 41
0.2032
 70
0
  0
VERTEX
  8
1
 10
42.1118
 20
16.5682
 30
0.0000
 42
1.0000
  0
VERTEX
  8
1
 10
41.9682
 20
16.7118
 30
0.0000
  0
SEQEND
  8
0
  0
POLYLINE
  8
1
 66
1
 10
0.0000
 20
0.0000
 30
0.0000
 40
0.4064
 41
0.4064
 70
0
  0
VERTEX
  8
1
 10
40.3225
 20
14.9225
 30
0.0000
  0
VERTEX
  8
1
 10
40.3225
 20
13.3350
 30
0.0000
  0
SEQEND
  8
0
  0
POLYLINE
  8
1
 66
1
 10
0.0000
 20
0.0000
 30
0.0000
 40
0.2032
 41
0.2032
 70
0
  0
VERTEX
  8
1
 10
40.2209
 20
13.3350
 30
0.0000
 42
1.0000
  0
VERTEX
  8
1
 10
40.4241
 20
13.3350
 30
0.0000
  0
SEQEND
  8
0
  0
POLYLINE
  8
1
 66
1
 10
0.0000
 20
0.0000
 30
0.0000
 40
0.2032
 41
0.2032
 70
0
  0
VERTEX
  8
1
 10
40.4241
 20
14.9225
 30
0.0000
 42
1.0000
  0
VERTEX
  8
1
 10
40.2209
 20
14.9225
 30
0.0000
  0
SEQEND
  8
0
  0
ENDSEC
  0
EOF
