solid ascii
  facet normal 0.000000e+000 1.000000e+000 -0.000000e+000
    outer loop
      vertex   0.000000e+000 3.174999e+001 0.000000e+000
      vertex   -5.097659e+000 3.174999e+001 0.000000e+000
      vertex   0.000000e+000 3.174999e+001 1.270000e+001
    endloop
  endfacet
  facet normal 0.000000e+000 1.000000e+000 -0.000000e+000
    outer loop
      vertex   0.000000e+000 3.174999e+001 1.270000e+001
      vertex   -5.097659e+000 3.174999e+001 0.000000e+000
      vertex   -5.097659e+000 3.174999e+001 1.270000e+001
    endloop
  endfacet
  facet normal 1.000000e+000 0.000000e+000 -0.000000e+000
    outer loop
      vertex   0.000000e+000 0.000000e+000 0.000000e+000
      vertex   0.000000e+000 3.174999e+001 0.000000e+000
      vertex   0.000000e+000 0.000000e+000 1.270000e+001
    endloop
  endfacet
  facet normal 1.000000e+000 -0.000000e+000 0.000000e+000
    outer loop
      vertex   0.000000e+000 0.000000e+000 1.270000e+001
      vertex   0.000000e+000 3.174999e+001 0.000000e+000
      vertex   0.000000e+000 3.174999e+001 1.270000e+001
    endloop
  endfacet
  facet normal 1.132032e-001 -9.935719e-001 1.398660e-016
    outer loop
      vertex   -3.179535e+001 -3.622622e+000 0.000000e+000
      vertex   0.000000e+000 0.000000e+000 0.000000e+000
      vertex   -3.179535e+001 -3.622622e+000 1.270000e+001
    endloop
  endfacet
  facet normal 1.132032e-001 -9.935719e-001 0.000000e+000
    outer loop
      vertex   -3.179535e+001 -3.622622e+000 1.270000e+001
      vertex   0.000000e+000 0.000000e+000 0.000000e+000
      vertex   0.000000e+000 0.000000e+000 1.270000e+001
    endloop
  endfacet
  facet normal -7.437123e-001 6.684999e-001 0.000000e+000
    outer loop
      vertex   -5.097659e+000 2.607880e+001 0.000000e+000
      vertex   -3.179535e+001 -3.622622e+000 0.000000e+000
      vertex   -5.097659e+000 2.607880e+001 1.270000e+001
    endloop
  endfacet
  facet normal -7.437123e-001 6.684999e-001 -9.350349e-017
    outer loop
      vertex   -5.097659e+000 2.607880e+001 1.270000e+001
      vertex   -3.179535e+001 -3.622622e+000 0.000000e+000
      vertex   -3.179535e+001 -3.622622e+000 1.270000e+001
    endloop
  endfacet
  facet normal -1.000000e+000 0.000000e+000 0.000000e+000
    outer loop
      vertex   -5.097659e+000 3.174999e+001 0.000000e+000
      vertex   -5.097659e+000 2.607880e+001 0.000000e+000
      vertex   -5.097659e+000 3.174999e+001 1.270000e+001
    endloop
  endfacet
  facet normal -1.000000e+000 -0.000000e+000 0.000000e+000
    outer loop
      vertex   -5.097659e+000 3.174999e+001 1.270000e+001
      vertex   -5.097659e+000 2.607880e+001 0.000000e+000
      vertex   -5.097659e+000 2.607880e+001 1.270000e+001
    endloop
  endfacet
  facet normal -0.000000e+000 0.000000e+000 1.000000e+000
    outer loop
      vertex   -5.097659e+000 3.174999e+001 1.270000e+001
      vertex   -5.097659e+000 2.607880e+001 1.270000e+001
      vertex   0.000000e+000 3.174999e+001 1.270000e+001
    endloop
  endfacet
  facet normal 0.000000e+000 0.000000e+000 1.000000e+000
    outer loop
      vertex   0.000000e+000 3.174999e+001 1.270000e+001
      vertex   -5.097659e+000 2.607880e+001 1.270000e+001
      vertex   0.000000e+000 0.000000e+000 1.270000e+001
    endloop
  endfacet
  facet normal 0.000000e+000 0.000000e+000 1.000000e+000
    outer loop
      vertex   0.000000e+000 0.000000e+000 1.270000e+001
      vertex   -5.097659e+000 2.607880e+001 1.270000e+001
      vertex   -3.179535e+001 -3.622622e+000 1.270000e+001
    endloop
  endfacet
  facet normal 0.000000e+000 -0.000000e+000 -1.000000e+000
    outer loop
      vertex   -5.097659e+000 3.174999e+001 0.000000e+000
      vertex   0.000000e+000 3.174999e+001 0.000000e+000
      vertex   -5.097659e+000 2.607880e+001 0.000000e+000
    endloop
  endfacet
  facet normal 0.000000e+000 0.000000e+000 -1.000000e+000
    outer loop
      vertex   -5.097659e+000 2.607880e+001 0.000000e+000
      vertex   0.000000e+000 3.174999e+001 0.000000e+000
      vertex   0.000000e+000 0.000000e+000 0.000000e+000
    endloop
  endfacet
  facet normal 0.000000e+000 0.000000e+000 -1.000000e+000
    outer loop
      vertex   -3.179535e+001 -3.622622e+000 0.000000e+000
      vertex   -5.097659e+000 2.607880e+001 0.000000e+000
      vertex   0.000000e+000 0.000000e+000 0.000000e+000
    endloop
  endfacet
endsolid
