solid ascii
  facet normal -7.071068e-001 -7.071068e-001 0.000000e+000
    outer loop
      vertex   -3.174999e+001 3.174999e+001 0.000000e+000
      vertex   0.000000e+000 0.000000e+000 0.000000e+000
      vertex   -3.174999e+001 3.174999e+001 1.270000e+001
    endloop
  endfacet
  facet normal -7.071068e-001 -7.071068e-001 0.000000e+000
    outer loop
      vertex   -3.174999e+001 3.174999e+001 1.270000e+001
      vertex   0.000000e+000 0.000000e+000 0.000000e+000
      vertex   0.000000e+000 0.000000e+000 1.270000e+001
    endloop
  endfacet
  facet normal 0.000000e+000 1.000000e+000 -0.000000e+000
    outer loop
      vertex   0.000000e+000 3.174999e+001 0.000000e+000
      vertex   -3.174999e+001 3.174999e+001 0.000000e+000
      vertex   0.000000e+000 3.174999e+001 1.270000e+001
    endloop
  endfacet
  facet normal 0.000000e+000 1.000000e+000 -0.000000e+000
    outer loop
      vertex   0.000000e+000 3.174999e+001 1.270000e+001
      vertex   -3.174999e+001 3.174999e+001 0.000000e+000
      vertex   -3.174999e+001 3.174999e+001 1.270000e+001
    endloop
  endfacet
  facet normal 1.000000e+000 0.000000e+000 -0.000000e+000
    outer loop
      vertex   0.000000e+000 0.000000e+000 0.000000e+000
      vertex   0.000000e+000 3.174999e+001 0.000000e+000
      vertex   0.000000e+000 0.000000e+000 1.270000e+001
    endloop
  endfacet
  facet normal 1.000000e+000 -0.000000e+000 0.000000e+000
    outer loop
      vertex   0.000000e+000 0.000000e+000 1.270000e+001
      vertex   0.000000e+000 3.174999e+001 0.000000e+000
      vertex   0.000000e+000 3.174999e+001 1.270000e+001
    endloop
  endfacet
  facet normal 0.000000e+000 -0.000000e+000 1.000000e+000
    outer loop
      vertex   0.000000e+000 0.000000e+000 1.270000e+001
      vertex   0.000000e+000 3.174999e+001 1.270000e+001
      vertex   -3.174999e+001 3.174999e+001 1.270000e+001
    endloop
  endfacet
  facet normal -0.000000e+000 -0.000000e+000 -1.000000e+000
    outer loop
      vertex   0.000000e+000 3.174999e+001 0.000000e+000
      vertex   0.000000e+000 0.000000e+000 0.000000e+000
      vertex   -3.174999e+001 3.174999e+001 0.000000e+000
    endloop
  endfacet
endsolid
